<svg width="21" height="20" viewBox="0 0 21 20" fill="none" xmlns="http://www.w3.org/2000/svg">
<path d="M18.6025 0H2.4019C1.07626 0 0 1.07626 0 2.4019V11.6617H21V2.4019C21 1.07626 19.9238 0 18.6025 0ZM3.26381 9.87518C3.26381 10.1168 3.06813 10.3127 2.82631 10.3127C2.58449 10.3127 2.38881 10.1168 2.38881 9.87518V6.21112C2.38881 5.96951 2.58449 5.77362 2.82631 5.77362C3.06813 5.77362 3.26381 5.96951 3.26381 6.21112V9.87518ZM5.45131 9.87518C5.45131 10.1168 5.25563 10.3127 5.01381 10.3127C4.77199 10.3127 4.57631 10.1168 4.57631 9.87518V7.52362C4.57631 7.28201 4.77199 7.08612 5.01381 7.08612C5.25563 7.08612 5.45131 7.28201 5.45131 7.52362V9.87518ZM7.63881 9.87518C7.63881 10.1168 7.44313 10.3127 7.20131 10.3127C6.95949 10.3127 6.76381 10.1168 6.76381 9.87518V4.89862C6.76381 4.65701 6.95949 4.46112 7.20131 4.46112C7.44313 4.46112 7.63881 4.65701 7.63881 4.89862V9.87518ZM9.82631 9.87518C9.82631 10.1168 9.63063 10.3127 9.38881 10.3127C9.14699 10.3127 8.95131 10.1168 8.95131 9.87518V5.77362C8.95131 5.53201 9.14699 5.33612 9.38881 5.33612C9.63063 5.33612 9.82631 5.53201 9.82631 5.77362V9.87518ZM14.0714 9.89438C12.4705 9.68001 11.2306 8.30868 11.2306 6.65001C11.2306 6.22618 11.3117 5.81626 11.4629 5.43553C11.4974 5.48045 11.5297 5.52656 11.5708 5.56768L13.566 7.55758C13.7062 7.70586 13.8815 7.81246 14.0714 7.88061V9.89438ZM14.5075 7.08751C14.3981 7.08751 14.2844 7.04377 14.2013 6.95626L12.1888 4.94812C12.0181 4.77752 12.0181 4.50189 12.1888 4.33126C12.81 3.71002 13.6325 3.36876 14.5075 3.36876C15.435 3.36876 16.3231 3.7669 16.9444 4.45813C17.0231 4.54563 17.0625 4.65939 17.0581 4.77752C17.0494 4.89127 17.0013 5.00065 16.9138 5.0794L14.8006 6.97375C14.7175 7.04815 14.6125 7.08751 14.5075 7.08751ZM14.9464 9.89411V7.88379C15.1057 7.82683 15.2551 7.74117 15.3848 7.6253L17.5001 5.72918C17.5417 5.69156 17.5765 5.64801 17.6126 5.60566C17.7261 5.9396 17.7888 6.29082 17.7888 6.65001C17.7888 8.30804 16.5499 9.67894 14.9464 9.89411Z" fill="white"/>
<path d="M0 13.9126C0 15.2338 1.07626 16.3101 2.4019 16.3101H7.55125L6.87751 18.4932H6.125C5.88438 18.4932 5.6875 18.6901 5.6875 18.9307C5.6875 19.1713 5.88438 19.3682 6.125 19.3682H13.7988C13.8031 19.3682 13.8031 19.3682 13.8031 19.3682H14.875C15.1156 19.3682 15.3125 19.1713 15.3125 18.9307C15.3125 18.6901 15.1156 18.4932 14.875 18.4932H14.1225L13.4488 16.3101H18.6025C19.9238 16.3101 21 15.2338 21 13.9126V12.5388H0V13.9126ZM17.7756 13.4663C17.9375 13.3044 18.2306 13.3044 18.3925 13.4663C18.4756 13.5494 18.5238 13.6632 18.5238 13.777C18.5238 13.8907 18.4756 14.0044 18.3925 14.0876C18.3138 14.1663 18.2 14.2145 18.0863 14.2145C17.9681 14.2145 17.8544 14.1663 17.7756 14.0876C17.6925 14.0044 17.6444 13.8907 17.6444 13.777C17.6444 13.6632 17.6925 13.5494 17.7756 13.4663Z" fill="white"/>
</svg>
