<svg width="24" height="24" viewBox="0 0 24 24" fill="none" xmlns="http://www.w3.org/2000/svg">
<path d="M12 0C6.11867 0 1.33333 4.78533 1.33333 10.6667H0V17.3333H1.33333H2.66667H4V10.6667C4 6.25467 7.588 2.66667 12 2.66667C16.412 2.66667 20 6.25467 20 10.6667V16.62L12.9293 21.3333H10.6667V24H13.7373L22.6667 18.0467V17.3333H24V10.6667H22.6667C22.6667 4.78533 17.8813 0 12 0Z" fill="white"/>
<path d="M18.6667 11.9999C18.6667 8.32392 15.676 5.33325 12 5.33325C8.324 5.33325 5.33333 8.32392 5.33333 11.9999C5.33333 15.6759 8.324 18.6666 12 18.6666C15.676 18.6666 18.6667 15.6759 18.6667 11.9999Z" fill="white"/>
</svg>
