<svg width="25" height="25" viewBox="0 0 25 25" fill="none" xmlns="http://www.w3.org/2000/svg">
<path d="M8.36164 9.18179C8.95983 9.18179 9.44653 8.69141 9.44653 8.08858C9.44653 7.48575 8.95983 6.99536 8.36164 6.99536C7.76346 6.99536 7.27676 7.48575 7.27676 8.08858C7.27676 8.69141 7.76346 9.18179 8.36164 9.18179Z" fill="white"/>
<path d="M16.6384 9.18179C17.2365 9.18179 17.7232 8.69141 17.7232 8.08858C17.7232 7.48575 17.2365 6.99536 16.6384 6.99536C16.0402 6.99536 15.5535 7.48575 15.5535 8.08858C15.5535 8.69141 16.0402 9.18179 16.6384 9.18179Z" fill="white"/>
<path d="M11.4151 13.5776C11.4151 14.1804 11.9018 14.6708 12.5 14.6708C13.0982 14.6708 13.5849 14.1804 13.5849 13.5776C13.5849 12.9748 13.0982 12.4844 12.5 12.4844C11.9018 12.4844 11.4151 12.9748 11.4151 13.5776Z" fill="white"/>
<path d="M10.3583 12.1441C10.0704 11.2796 9.27404 10.6797 8.36165 10.6797C7.19728 10.6797 6.25 11.6531 6.25 12.8496V13.2037H9.9516C10.0079 12.8161 10.1501 12.4562 10.3583 12.1441Z" fill="white"/>
<path d="M16.6384 10.6797C15.726 10.6797 14.9296 11.2796 14.6417 12.1441C14.85 12.4562 14.9921 12.8161 15.0484 13.2037H18.75V12.8496C18.75 11.6531 17.8027 10.6797 16.6384 10.6797Z" fill="white"/>
<path d="M25 14.5464V10.4802L22.1123 9.77431C21.9016 9.02965 21.6061 8.32067 21.238 7.65764L22.7858 5.10812L19.9107 2.23296L17.3683 3.77655C16.7063 3.40636 15.9982 3.10892 15.2543 2.89594L14.5464 0H10.4802L9.77431 2.88766C9.02965 3.0984 8.32067 3.39386 7.65764 3.76202L5.10812 2.21416L2.23296 5.08932L3.77655 7.63173C3.40636 8.29364 3.10892 9.00176 2.89594 9.74567L0 10.4536V14.5197L2.88771 15.2256C3.09845 15.9703 3.39386 16.6793 3.76207 17.3423L2.21421 19.8918L5.08937 22.767L7.63178 21.2235C8.2937 21.5936 9.00182 21.8911 9.74573 22.1041L10.4536 25H14.5197L15.2256 22.1123C15.9703 21.9015 16.6793 21.6061 17.3423 21.2379L19.8918 22.7858L22.767 19.9107L21.2234 17.3683C21.5936 16.7064 21.891 15.9982 22.104 15.2543L25 14.5464ZM20.2408 13.949C20.2408 14.3607 19.9071 14.6944 19.4954 14.6944H14.8224C14.7235 14.9007 14.5975 15.0914 14.4501 15.2629C15.4433 15.9154 16.1025 17.0499 16.1025 18.3385V19.438C16.1025 19.8497 15.7688 20.1834 15.3571 20.1834H9.64295C9.23125 20.1834 8.89754 19.8497 8.89754 19.438V18.3385C8.89754 17.0498 9.55678 15.9154 10.55 15.2629C10.4025 15.0914 10.2765 14.9007 10.1776 14.6944H5.50465C5.09295 14.6944 4.75924 14.3607 4.75924 13.949V12.8495C4.75924 11.5608 5.41848 10.4264 6.4117 9.77393C6.02233 9.3211 5.786 8.73221 5.786 8.08862C5.786 6.66378 6.94145 5.50459 8.3617 5.50459C9.78195 5.50459 10.9374 6.66378 10.9374 8.08862C10.9374 8.73146 10.7017 9.31971 10.3131 9.77238C10.8387 10.1167 11.2723 10.5976 11.5633 11.1713C12.1618 10.936 12.8384 10.936 13.4368 11.1713C13.7278 10.5976 14.1614 10.1167 14.687 9.77238C14.2985 9.31977 14.0627 8.73146 14.0627 8.08862C14.0627 6.66378 15.2182 5.50459 16.6384 5.50459C18.0587 5.50459 19.2141 6.66378 19.2141 8.08862C19.2141 8.73221 18.9778 9.3211 18.5884 9.77393C19.5816 10.4264 20.2409 11.5609 20.2409 12.8495V13.949H20.2408Z" fill="white"/>
<path d="M12.5 16.1687C11.3356 16.1687 10.3884 17.1422 10.3884 18.3386V18.6927H14.6116V18.3386C14.6116 17.1421 13.6644 16.1687 12.5 16.1687Z" fill="white"/>
</svg>
