<svg width="24" height="21" viewBox="0 0 24 21" fill="none" xmlns="http://www.w3.org/2000/svg">
<path d="M0 0V17.5834H9.66488C9.40353 18.3436 9.14146 19.1034 8.87836 19.863H6.6721V21.0006H17.3279V19.863H15.1216C14.8585 19.1034 14.5965 18.3436 14.3351 17.5834H24V0H0ZM19.3186 3.05055L19.112 7.37863L17.9744 7.32532L18.0789 5.16127L12.5999 10.7336L9.54934 7.63415L5.49009 11.7601L4.67913 10.9624L9.54934 6.01001L12.5999 9.10943L17.3012 4.33032L15.1772 4.47474L15.0972 3.34161L19.3186 3.05055ZM1.13757 14.2662H22.8624V16.4458H1.13757V14.2662Z" fill="white"/>
</svg>
