<svg width="24" height="18" viewBox="0 0 24 18" fill="none" xmlns="http://www.w3.org/2000/svg">
<path d="M7.38375 9.75H9.11625L8.25 7.25531L7.38375 9.75ZM16.5 9C15.8798 9 15.375 9.50484 15.375 10.125C15.375 10.7452 15.8798 11.25 16.5 11.25C17.1202 11.25 17.625 10.7452 17.625 10.125C17.625 9.50484 17.1202 9 16.5 9ZM21.75 0H2.25C1.00781 0 0 1.00781 0 2.25V15.75C0 16.9922 1.00781 18 2.25 18H21.75C22.9922 18 24 16.9922 24 15.75V2.25C24 1.00781 22.9922 0 21.75 0ZM11.7459 13.5H10.9519C10.6327 13.5 10.3481 13.2975 10.2431 12.9961L9.89766 12H6.60281L6.25688 12.9961C6.20574 13.1433 6.11001 13.2709 5.98299 13.3613C5.85597 13.4516 5.70397 13.5001 5.54813 13.5H4.75406C4.23797 13.5 3.87609 12.9914 4.04531 12.5039L6.5625 5.25562C6.63919 5.03489 6.78272 4.84353 6.97316 4.70812C7.1636 4.5727 7.39148 4.49996 7.62516 4.5H8.87484C9.10858 4.49996 9.33652 4.57275 9.52698 4.70826C9.71743 4.84377 9.86092 5.03526 9.9375 5.25609L12.4542 12.5039C12.6234 12.9914 12.2616 13.5 11.7459 13.5ZM19.875 12.75C19.875 13.1644 19.5394 13.5 19.125 13.5H18.375C18.1477 13.5 17.9513 13.3936 17.8134 13.2338C17.4094 13.4053 16.9655 13.5 16.5 13.5C14.6391 13.5 13.125 11.9859 13.125 10.125C13.125 8.26406 14.6391 6.75 16.5 6.75C16.8966 6.75 17.2716 6.83109 17.625 6.95719V5.25C17.625 4.83563 17.9606 4.5 18.375 4.5H19.125C19.5394 4.5 19.875 4.83563 19.875 5.25V12.75Z" fill="white"/>
</svg>
