<svg width="24" height="24" viewBox="0 0 24 24" fill="none" xmlns="http://www.w3.org/2000/svg">
<path d="M21.9996 1.49998V0H20.2497C19.1452 0 18.2497 0.895489 18.2497 2.00008V2.99996H16.9999V4.49994H18.2497V6.99981H19.7496V4.49994H20.9997V2.99996H19.7496V1.49998H21.9996Z" fill="white"/>
<path d="M9.74994 18.499V16.4993H11V14.9993H9.74994V12.9995H8.24996V14.9993H6.99988V16.4993H8.24996V17.9992C8.24996 19.105 9.14545 19.999 10.25 19.999H11.9999V18.499H9.74994Z" fill="white"/>
<path d="M23.9997 17.9995V11.9995H21.9996V9.99946C21.9996 8.89997 21.0993 7.99938 19.9999 7.99938H12.9997V3.99983C12.9997 2.90034 12.0994 1.99976 10.9997 1.99976H1.99978C0.899989 1.99976 0 2.90034 0 3.99983V9.99976C0 11.0995 0.899989 11.9998 2.00008 11.9998V20.9997H0V21.9999C0 23.1045 0.896089 23.9997 2.00008 23.9997L21.9999 24.0009C23.1045 24.0009 24 23.1051 24 22.0005V20.9997H21.9999V17.9998L23.9997 17.9995ZM5.75003 5.49981L8.2499 6.99979L5.75003 8.49977V5.49981ZM19.9999 11.9998H13.9999V19.9995L15.9997 17.9998H19.9999V20.9997H15.9997L14.9998 21.9996H8.99989L8 20.9994H3.99985V11.9995H10.9997C12.0994 11.9995 12.9997 11.0992 12.9997 9.99946H19.9999V11.9998Z" fill="white"/>
</svg>
