<svg width="24" height="25" viewBox="0 0 24 25" fill="none" xmlns="http://www.w3.org/2000/svg">
<path d="M12.7768 6.85616C12.9896 6.55033 13.0115 6.1333 12.8204 5.79411C12.624 5.45492 12.2638 5.26586 11.8927 5.29923L12.7768 6.85616ZM11.1341 5.28811L10.2772 3.77566L8.91829 6.36128L10.3209 8.83569L13.2025 8.93022L11.1341 5.28811ZM14.4304 7.00073C14.2558 6.96181 14.1466 6.78387 14.1848 6.60594C14.223 6.428 14.3977 6.31679 14.5778 6.35572L15.1235 6.48361C15.2982 6.52253 15.4073 6.70047 15.3691 6.8784C15.3309 7.05634 15.1563 7.16755 14.9816 7.12862L14.4304 7.00073ZM13.2243 3.97027C13.1697 4.14265 12.9896 4.24274 12.815 4.18713C12.6403 4.13153 12.5476 3.94247 12.6021 3.7701L12.7713 3.22517C12.8259 3.05279 13.006 2.95271 13.1806 3.00831C13.3553 3.06391 13.4481 3.25297 13.3935 3.42535L13.2243 3.97027ZM14.2831 5.32147C14.1248 5.41044 13.9283 5.36039 13.8355 5.19914C13.7428 5.03788 13.7973 4.83771 13.9556 4.74318L14.5396 4.39843C14.6978 4.3039 14.8943 4.35951 14.9871 4.52076C15.0744 4.68201 15.0253 4.88219 14.867 4.97672L14.2831 5.32147ZM13.0278 18.6555H8.24702V22.4922H13.0278V18.6555ZM18.4635 13.779H13.6827V22.4867H18.4635V13.779ZM23.8993 8.14619H19.1184V22.4922H23.8993V8.14619ZM4.55771 23.1595H0.0170345V25H23.8993V23.1595H4.55771ZM8.51443 9.72537L8.59084 9.68644L9.68781 9.04143L8.43257 6.8228L7.30832 7.48449C7.06273 7.62907 6.96449 8.00718 7.10639 8.2574L7.7995 9.48071C7.94139 9.73093 8.25247 9.83658 8.51443 9.72537ZM4.34487 5.05457C3.39526 4.08704 1.85623 4.08704 0.906615 5.05457C-0.0429985 6.02209 -0.0429985 7.59014 0.906615 8.55767C1.85623 9.52519 3.39526 9.52519 4.34487 8.55767C5.29448 7.59014 5.29448 6.02209 4.34487 5.05457ZM4.23026 12.9782L2.71852 12.0886C2.56025 11.994 2.51113 11.7939 2.59845 11.6326C2.69123 11.4714 2.8877 11.4213 3.04597 11.5103L4.71052 12.4889L5.97668 13.1784C6.44602 13.4342 6.73527 13.2952 7.15005 13.0895C7.21554 13.0561 7.28649 13.0227 7.35198 12.9894L9.50771 11.8161C10.6047 11.2156 9.97706 9.68644 8.89101 10.2703C8.86372 10.287 8.83643 10.2981 8.8146 10.3092L6.84443 11.3268C6.74073 11.3768 6.61521 11.3768 6.51152 11.3045C5.54553 10.6262 4.57409 9.93111 3.98467 9.62528C3.04052 10.0979 1.91626 10.0368 1.02122 9.48071C-0.2613 10.2647 0.0279496 12.7336 0.0279496 14.3739V22.4867H1.95446V15.942C1.95446 15.7585 2.10182 15.6084 2.28192 15.6084C2.46202 15.6084 2.60937 15.7585 2.60937 15.942V22.4922H4.23026V12.9782ZM16.0513 4.04256L20.1117 1.17891L19.7133 0.57282C19.5714 0.355962 19.7188 0.0556958 19.9917 0.0556958L23.67 9.10348e-05C23.9047 -0.00546944 24.063 0.244752 23.9757 0.461611L22.524 3.91467C22.4148 4.17045 22.0819 4.18157 21.9455 3.95915L21.558 3.36974C20.4283 4.12041 18.0706 5.63286 17.5521 6.07769C17.4048 6.21114 17.1865 6.17222 17.0719 6.01097L15.9804 4.50964C15.8603 4.35951 15.8985 4.14821 16.0513 4.04256Z" fill="white"/>
</svg>
