<svg width="24" height="23" viewBox="0 0 24 23" fill="none" xmlns="http://www.w3.org/2000/svg">
<path d="M23.7537 0H0.245836C0.110135 0 0 0.110135 0 0.245836V13.6542H24V0.245836C23.9995 0.109643 23.8899 0 23.7537 0ZM15.6632 8.83486C15.7227 9.06004 15.7527 9.28818 15.7527 9.51582C15.7527 10.9977 14.5466 12.2038 13.0642 12.2038C12.6965 12.2038 12.3385 12.1296 11.9998 11.9821C11.66 12.1296 11.3026 12.2038 10.9348 12.2038C9.45289 12.2038 8.24682 10.9977 8.24682 9.51582C8.24682 9.28671 8.27681 9.05857 8.3363 8.83486C7.45474 8.43316 6.87702 7.54963 6.87702 6.56727C6.87702 5.61883 7.4095 4.76283 8.24731 4.33999C8.24731 4.33262 8.24731 4.32573 8.24731 4.31836C8.24731 3.00854 9.31276 1.94309 10.6226 1.94309C11.1167 1.94309 11.599 2.09895 12.0002 2.3851C12.4014 2.09895 12.8828 1.94309 13.3774 1.94309C14.6872 1.94309 15.7527 3.00854 15.7527 4.31836C15.7527 4.32573 15.7527 4.33262 15.7527 4.33999C16.5905 4.76234 17.1225 5.61883 17.1225 6.56727C17.1225 7.54963 16.5448 8.43316 15.6632 8.83486Z" fill="white"/>
<path d="M15.4031 4.71913C15.3834 4.71077 15.3731 4.69209 15.3569 4.6798L15.3102 4.65718C14.731 4.37349 14.3121 4.29629 14.0657 4.4315C13.9074 4.51755 13.8091 4.71126 13.7727 5.00676C13.7579 5.13115 13.6517 5.22309 13.5293 5.22309C13.519 5.22309 13.5097 5.2226 13.4993 5.22162C13.3646 5.2054 13.2682 5.08297 13.2845 4.94776C13.34 4.48509 13.5239 4.166 13.8302 3.99932C14.2796 3.75496 14.8613 3.92705 15.2364 4.08291C15.1194 3.15611 14.3347 2.43384 13.3764 2.43384C12.9314 2.43384 12.4988 2.59314 12.1585 2.88273C12.0661 2.96091 11.9319 2.96091 11.8399 2.88273C11.4992 2.59314 11.0665 2.43384 10.6211 2.43384C9.65298 2.43384 8.86286 3.17085 8.75813 4.11093C9.13328 3.95507 9.7169 3.782 10.1668 4.02637C10.4731 4.19304 10.657 4.51214 10.7125 4.9748C10.7288 5.10952 10.6324 5.23194 10.4977 5.24866C10.4873 5.24964 10.4775 5.25014 10.4677 5.25014C10.3448 5.25014 10.2391 5.15819 10.2238 5.0338C10.1884 4.73781 10.0901 4.54459 9.93126 4.45854C9.68543 4.3253 9.26702 4.40053 8.68832 4.68324L8.61506 4.71815C8.60473 4.72257 8.59441 4.72159 8.58408 4.72454C7.84412 5.04068 7.36621 5.76197 7.36621 6.56684C7.36621 7.35646 7.83477 8.06152 8.54426 8.38307C8.76305 8.03694 9.16327 7.69326 9.7464 7.48725C9.70755 6.85446 9.43861 6.45523 9.24686 6.45523C9.11116 6.45523 9.00102 6.34509 9.00102 6.20939C9.00102 6.07369 9.11116 5.96355 9.24686 5.96355C9.75918 5.96355 10.1555 6.54815 10.2302 7.36039C10.4382 7.32204 10.658 7.295 10.9023 7.295C11.038 7.295 11.1482 7.40514 11.1482 7.54084C11.1482 7.67654 11.038 7.78667 10.9023 7.78667C9.73312 7.78667 9.08313 8.32653 8.88204 8.7887C8.87614 8.80198 8.86286 8.80837 8.85499 8.82017C8.77879 9.04781 8.73601 9.28136 8.73601 9.51539C8.73601 10.7264 9.72132 11.7117 10.9323 11.7117C11.2091 11.7117 11.4771 11.6478 11.7357 11.5445C11.658 10.5558 10.9136 9.77451 9.99961 9.77451C9.86391 9.77451 9.75377 9.66437 9.75377 9.52867C9.75377 9.39297 9.86391 9.28283 9.99961 9.28283C10.8758 9.28283 11.628 9.83449 11.9973 10.629C12.366 9.83449 13.1183 9.28283 13.9944 9.28283C14.1301 9.28283 14.2403 9.39297 14.2403 9.52867C14.2403 9.66437 14.1301 9.77451 13.9944 9.77451C13.0804 9.77451 12.3365 10.5558 12.2588 11.5445C12.5165 11.6478 12.7839 11.7117 13.0617 11.7117C14.2732 11.7117 15.2585 10.7264 15.2585 9.51539C15.2585 9.28333 15.2162 9.05027 15.141 8.82115C15.1327 8.80935 15.1194 8.80247 15.113 8.7887C14.9114 8.32653 14.2614 7.78667 13.0927 7.78667C12.957 7.78667 12.8469 7.67654 12.8469 7.54084C12.8469 7.40514 12.957 7.295 13.0927 7.295C13.3371 7.295 13.5564 7.32254 13.7648 7.36039C13.8396 6.54815 14.2359 5.96355 14.7482 5.96355C14.8839 5.96355 14.994 6.07369 14.994 6.20939C14.994 6.34509 14.8839 6.45523 14.7482 6.45523C14.5559 6.45523 14.287 6.85446 14.2481 7.48725C14.8313 7.69375 15.2315 8.03743 15.4498 8.38356C16.1598 8.06201 16.6278 7.35695 16.6278 6.56684C16.6308 5.75803 16.1485 5.03282 15.4031 4.71913Z" fill="white"/>
<path d="M11.9998 15.5652C12.1369 15.5652 12.2481 15.454 12.2481 15.3169C12.2481 15.1798 12.1369 15.0686 11.9998 15.0686C11.8626 15.0686 11.7515 15.1798 11.7515 15.3169C11.7515 15.454 11.8626 15.5652 11.9998 15.5652Z" fill="white"/>
<path d="M0 14.1458V16.7339C0 16.8696 0.110135 16.9798 0.245836 16.9798H9.35308C9.26065 18.6691 8.2655 19.7862 7.44982 20.6865C6.86768 21.3286 6.40796 21.836 6.40796 22.4014C6.40796 22.5371 6.5181 22.6473 6.6538 22.6473H17.3452C17.4809 22.6473 17.591 22.5371 17.591 22.4014C17.591 21.836 17.1313 21.3281 16.5497 20.6865C15.7335 19.7862 14.7384 18.6686 14.6464 16.9798H23.7537C23.8894 16.9798 23.9995 16.8696 23.9995 16.7339V14.1458H0ZM11.9998 16.0569C11.5917 16.0569 11.2603 15.7245 11.2603 15.3164C11.2603 14.9088 11.5922 14.5769 11.9998 14.5769C12.4078 14.5769 12.7397 14.9088 12.7397 15.3164C12.7397 15.7245 12.4078 16.0569 11.9998 16.0569Z" fill="white"/>
</svg>
