<svg width="21" height="17" viewBox="0 0 21 17" fill="none" xmlns="http://www.w3.org/2000/svg">
<path fill-rule="evenodd" clip-rule="evenodd" d="M10.5 0.000328084C7.15871 0.0017599 3.81677 0.0077709 0.477273 0.0077709C0.227063 0.00824818 -0.00030991 0.235475 3.17088e-07 0.485044V15.7578C3.17088e-07 16.0073 0.227063 16.2347 0.477273 16.235C7.15976 16.2398 13.8446 16.235 20.5227 16.235C20.7729 16.235 21.0003 16.0073 21 15.7578V0.485044C21 0.235475 20.7729 0.00811931 20.5227 0.0077709C17.1819 0.00216295 13.8413 -0.00107987 10.5 0.000328084ZM0.954546 0.962331H3.92259V3.02803H0.954546V0.962331ZM17.1371 0.962331H20.0455V3.02803H17.1371V0.962331ZM0.954546 3.98257H3.92259V6.10793H0.954546V3.98257ZM17.1371 3.98257H20.0455V6.10793H17.1371V3.98257ZM7.614 4.16155C7.71145 4.15775 7.80773 4.18377 7.88992 4.23612L10.761 6.01844L13.6246 7.80821C13.6944 7.85083 13.7519 7.91058 13.7919 7.98174C13.8318 8.0529 13.8528 8.1331 13.8528 8.21465C13.8528 8.29621 13.8318 8.37639 13.7919 8.44755C13.7519 8.51871 13.6944 8.57846 13.6246 8.62108L10.761 10.4034L7.88992 12.1932C7.81769 12.2381 7.73474 12.263 7.64965 12.2652C7.56456 12.2674 7.48042 12.247 7.40591 12.2059C7.33141 12.1649 7.26925 12.1047 7.22585 12.0317C7.18246 11.9586 7.15941 11.8754 7.15909 11.7905V8.21091V4.63882C7.1588 4.51618 7.20591 4.39814 7.29064 4.30926C7.37536 4.22037 7.49118 4.16746 7.614 4.16155ZM0.954546 7.06247H3.92259V9.18037H0.954546V7.06247ZM17.1371 7.06247H20.0455V9.18037H17.1371V7.06247ZM0.954546 10.1349H3.92259V12.2528H0.954546V10.1349ZM17.1371 10.1349H20.0455V12.2528H17.1371V10.1349ZM0.954546 13.2074H3.92259V15.2805H0.954546V13.2074ZM17.1371 13.2074H20.0455V15.2805H17.1371V13.2074Z" fill="white"/>
</svg>
