<svg width="28" height="27" viewBox="0 0 28 27" fill="none" xmlns="http://www.w3.org/2000/svg">
<path d="M8.50133 12.7822C6.39238 12.7822 4.68687 14.546 4.68687 16.7269C4.68687 18.9079 6.39238 20.6716 8.50133 20.6716C10.6103 20.6716 12.3158 18.9079 12.3158 16.7269C12.3158 14.546 10.6103 12.7822 8.50133 12.7822ZM2.20503 23.9462C3.35426 25.261 4.90083 26.2283 6.70413 26.6328C9.00259 27.1449 11.2766 26.6518 13.1105 25.4317C13.734 25.0208 14.3025 24.5214 14.8037 23.9525C13.8501 22.5744 12.3097 21.7273 10.6409 21.7273H6.37404C4.6991 21.721 3.15864 22.5617 2.20503 23.9462ZM10.0051 9.37491C7.79223 8.96401 5.61604 9.47605 3.86163 10.6645C2.05221 11.8846 0.682914 13.8127 0.193881 16.1706C-0.301265 18.5412 0.175543 20.8992 1.35533 22.7956C1.47148 22.979 1.59374 23.1623 1.72822 23.3456C2.82855 21.86 4.52794 20.9624 6.37404 20.9624H6.50852C3.71492 19.5463 3.07306 15.6965 5.28594 13.4081C7.0648 11.5685 9.94398 11.5685 11.7167 13.4081C13.9296 15.6965 13.2877 19.5463 10.4941 20.9624H10.6347C12.4747 20.9624 14.1802 21.86 15.2806 23.3519C17.1144 20.8486 17.524 17.5045 16.3381 14.6155C13.3978 14.3057 10.9282 12.2323 10.0051 9.37491ZM13.0065 2.73725C15.2561 0.417224 18.8933 0.417224 21.1428 2.73725C23.3924 5.06359 23.3924 8.82493 21.1428 11.1513C18.8933 13.4776 15.2561 13.4776 13.0065 11.1513C10.757 8.82493 10.757 5.05727 13.0065 2.73725ZM17.0778 1.75108C14.3025 1.75108 12.059 4.07742 12.059 6.9411C12.059 9.8111 14.3086 12.1311 17.0778 12.1311C19.8469 12.1311 22.0965 9.80478 22.0965 6.9411C22.0965 4.07742 19.8469 1.75108 17.0778 1.75108ZM23.1784 14.9316C23.1051 15.0074 23.0623 15.077 23.0623 15.1971C23.0623 15.2856 23.0929 15.3741 23.1601 15.4373L25.7887 18.1556C25.917 18.2883 26.131 18.2883 26.2593 18.1556L27.9037 16.4551C28.0321 16.3223 28.0321 16.1011 27.9037 15.9683L25.2752 13.25C25.214 13.1868 25.1285 13.1489 25.0429 13.1489C24.9573 13.1489 24.8717 13.1805 24.8045 13.25L23.1784 14.9316ZM24.022 12.9845L22.5671 11.48C22.4327 11.3409 22.4265 11.1133 22.5488 10.9679C22.9461 10.3927 23.2579 9.7542 23.4719 9.07147C24.2543 6.56813 23.5819 3.84984 21.8275 2.03555C20.611 0.777555 18.9361 0 17.0778 0C13.3672 0 10.3658 3.11022 10.3658 6.9411C10.3658 10.7783 13.3733 13.8822 17.0778 13.8822C18.4959 13.8822 19.8591 13.4207 20.9961 12.58C21.1428 12.4662 21.3446 12.4914 21.4668 12.6179L22.9217 14.1224L24.022 12.9845ZM17.7318 6.04343L17.0778 4.60211L16.4359 6.01183C16.387 6.13826 16.277 6.2394 16.1364 6.25837L14.6081 6.45434L15.7207 7.53533C15.8185 7.62383 15.8674 7.75658 15.8429 7.88934L15.5556 9.45077L16.9005 8.68586C17.0105 8.62264 17.1389 8.61632 17.255 8.67953L18.606 9.45077L18.3187 7.88934C18.2942 7.76923 18.3309 7.63647 18.4287 7.54165L19.5535 6.45434L18.0253 6.25837C17.8969 6.2394 17.7868 6.16354 17.7318 6.04343ZM17.4078 3.55273L18.3064 5.53139L20.4093 5.80321C20.7333 5.84114 20.8433 6.24572 20.5988 6.46698L19.0706 7.94623L19.4679 10.0956C19.5229 10.4116 19.1989 10.6519 18.93 10.5001L17.0778 9.44445L15.2194 10.5065C14.9443 10.6582 14.6265 10.418 14.6815 10.1019L15.0788 7.95255L13.5323 6.45434C13.3061 6.23308 13.4345 5.84114 13.7401 5.80321L15.8429 5.53139L16.7477 3.55273C16.876 3.26194 17.2795 3.26194 17.4078 3.55273Z" fill="white"/>
</svg>
