<svg width="29" height="26" viewBox="0 0 29 26" fill="none" xmlns="http://www.w3.org/2000/svg">
<path d="M17.5981 24.0686C17.37 24.3823 17.1632 24.6671 16.9746 24.9404C16.6907 25.3532 16.4222 25.7434 16.0123 25.8733C15.8141 25.9363 15.5822 25.9743 15.306 25.9892C14.7229 26.0215 14.0975 25.9825 13.395 25.8714C11.5533 25.5798 9.7722 24.8952 7.94972 23.7771C4.84939 21.8752 2.8412 20.0542 1.43826 17.8733C1.08608 17.3253 0.817619 16.7296 0.533759 16.0989C0.403857 15.8097 0.273955 15.5206 0.14309 15.254L0.0959405 15.1463C0.0112636 14.9533 -0.0176036 14.8884 0.0103013 14.478C0.0603377 14.0604 0.243163 13.6611 0.604964 13.1833C0.863806 12.8403 1.11303 12.489 1.36128 12.1374C1.5595 11.8573 1.75773 11.5768 1.96172 11.3007L2.11472 11.09C2.29562 10.8369 2.46689 10.5973 2.67281 10.414C2.67955 10.4111 2.69494 10.4087 2.71515 10.4087C2.73151 10.4087 2.75075 10.4101 2.77096 10.4154C3.01441 10.4756 3.24053 10.7272 3.40989 10.9394C4.02668 11.713 4.62134 12.5044 5.21601 13.2954L5.78373 14.0493C6.09645 14.4621 6.10512 14.7301 5.81933 15.153C5.62207 15.4455 5.41904 15.7361 5.2035 16.0137C4.92349 16.3712 4.91098 16.7657 5.1679 17.0958C5.28818 17.2492 5.40461 17.4066 5.52104 17.5644C5.82703 17.9796 6.1436 18.4092 6.53042 18.7749C7.70147 19.881 8.99568 20.7672 10.3765 21.4085C10.6565 21.5384 10.9471 21.6505 11.2396 21.7414C12.249 22.0556 12.4703 21.9815 13.0765 21.1261L13.243 20.8894C13.3546 20.7297 13.4662 20.5699 13.5827 20.4131C13.8502 20.0546 14.1802 19.9449 14.5641 20.0893C15.8853 20.5839 17.2026 21.091 18.5122 21.6212C18.6796 21.6885 18.8355 21.817 18.9086 21.9478C18.9433 22.0089 18.95 22.059 18.9491 22.0676C18.8615 22.3327 18.0705 23.4196 17.5981 24.0686Z" fill="white"/>
<path d="M16.7436 9.91309C16.402 9.91309 16.123 10.1917 16.123 10.5337C16.123 10.8758 16.402 11.1544 16.7436 11.1544C17.0862 11.1544 17.3652 10.8758 17.3652 10.5337C17.3652 10.1917 17.0862 9.91309 16.7436 9.91309Z" fill="white"/>
<path d="M19.9017 9.91309C19.5601 9.91309 19.281 10.1917 19.281 10.5337C19.281 10.8758 19.5601 11.1544 19.9017 11.1544C20.2442 11.1544 20.5233 10.8758 20.5233 10.5337C20.5233 10.1917 20.2442 9.91309 19.9017 9.91309Z" fill="white"/>
<path d="M11.3397 6.83813V14.2291H13.7164C13.7223 14.2291 13.7271 14.2321 13.7329 14.2324C13.7396 14.2329 13.7452 14.2301 13.752 14.231C13.7693 14.2328 13.7835 14.2417 13.7999 14.2459C13.8227 14.2518 13.8453 14.2564 13.866 14.2666C13.8863 14.2765 13.9029 14.29 13.9205 14.3034C13.938 14.3166 13.9553 14.3286 13.97 14.3447C13.9852 14.3616 13.9958 14.381 14.0076 14.4006C14.0185 14.4189 14.0299 14.4361 14.0373 14.4565C14.0453 14.4785 14.0477 14.5016 14.0511 14.5252C14.0536 14.5419 14.0609 14.5567 14.0609 14.574C14.0609 14.5804 14.0577 14.5857 14.0573 14.5919C14.057 14.598 14.0596 14.6035 14.059 14.6096L13.8242 16.8762L16.5435 14.3224C16.5457 14.3204 16.5491 14.3214 16.5514 14.3194C16.6123 14.2647 16.6908 14.2291 16.7792 14.2291H28.2414V6.83813H11.3397ZM16.7436 11.8442C16.021 11.8442 15.434 11.2562 15.434 10.5336C15.434 9.81097 16.021 9.22304 16.7436 9.22304C17.4663 9.22304 18.0542 9.81097 18.0542 10.5336C18.0542 11.2562 17.4663 11.8442 16.7436 11.8442ZM19.9017 11.8442C19.179 11.8442 18.5921 11.2562 18.5921 10.5336C18.5921 9.81097 19.179 9.22304 19.9017 9.22304C20.6243 9.22304 21.2123 9.81097 21.2123 10.5336C21.2123 11.2562 20.6243 11.8442 19.9017 11.8442ZM23.0607 11.8442C22.3381 11.8442 21.7501 11.2562 21.7501 10.5336C21.7501 9.81097 22.3381 9.22304 23.0607 9.22304C23.7834 9.22304 24.3703 9.81097 24.3703 10.5336C24.3703 11.2562 23.7834 11.8442 23.0607 11.8442Z" fill="white"/>
<path d="M23.0607 9.91309C22.7182 9.91309 22.4391 10.1917 22.4391 10.5337C22.4391 10.8758 22.7182 11.1544 23.0607 11.1544C23.4023 11.1544 23.6814 10.8758 23.6814 10.5337C23.6814 10.1917 23.4023 9.91309 23.0607 9.91309Z" fill="white"/>
<path d="M20.9669 0H4.06613V7.39047H6.4419C6.44785 7.39047 6.45278 7.39353 6.45868 7.39383C6.46529 7.39426 6.47076 7.39155 6.4775 7.39239C6.49482 7.3942 6.50901 7.4031 6.52537 7.40731C6.54822 7.41314 6.57078 7.41783 6.59152 7.42799C6.61173 7.43786 6.62833 7.45139 6.64601 7.4648C6.66345 7.47797 6.68077 7.48994 6.69545 7.50612C6.71072 7.52301 6.72131 7.54238 6.73303 7.56199C6.74398 7.58033 6.75535 7.59753 6.76274 7.61786C6.7708 7.63987 6.77315 7.66296 6.77658 7.6866C6.77904 7.70325 6.78638 7.71811 6.78638 7.73543C6.78638 7.74174 6.78313 7.74704 6.78277 7.75329C6.78247 7.75942 6.78512 7.76484 6.78445 7.77103L6.54967 10.0381L9.26991 7.4838C9.27214 7.4817 9.27557 7.48278 9.27779 7.4808C9.33871 7.42613 9.41732 7.39047 9.50566 7.39047H10.6507V6.49318C10.6507 6.30266 10.8047 6.14822 10.9952 6.14822H20.9669V0ZM9.47487 4.04044H8.07097C7.88044 4.04044 7.72648 3.886 7.72648 3.69547C7.72648 3.50495 7.88044 3.35051 8.07097 3.35051H9.47487C9.66539 3.35051 9.81935 3.50495 9.81935 3.69547C9.81935 3.886 9.66539 4.04044 9.47487 4.04044ZM12.9822 4.04044H11.5783C11.3878 4.04044 11.2338 3.886 11.2338 3.69547C11.2338 3.50495 11.3878 3.35051 11.5783 3.35051H12.9822C13.1727 3.35051 13.3267 3.50495 13.3267 3.69547C13.3267 3.886 13.1727 4.04044 12.9822 4.04044ZM16.4896 4.04044H15.0857C14.8952 4.04044 14.7412 3.886 14.7412 3.69547C14.7412 3.50495 14.8952 3.35051 15.0857 3.35051H16.4896C16.6801 3.35051 16.8341 3.50495 16.8341 3.69547C16.8341 3.886 16.6801 4.04044 16.4896 4.04044Z" fill="white"/>
</svg>
