<svg width="24" height="24" viewBox="0 0 24 24" fill="none" xmlns="http://www.w3.org/2000/svg">
<circle cx="12" cy="12" r="12" fill="white"/>
<path d="M17.9169 6.1019C14.0714 8.50022 10.3323 13.0327 10.3323 13.0327C9.57 12.2469 8.76461 11.5032 7.91978 10.8051C7.69822 10.6221 7.41623 10.5267 7.12795 10.537C6.83967 10.5474 6.5654 10.6628 6.35778 10.8611C6.15017 11.0595 6.02384 11.3267 6.00305 11.6117C5.98225 11.8966 6.06845 12.1791 6.24511 12.4049C7.44758 13.9537 8.49353 15.6157 9.36787 17.367C9.46255 17.5552 9.60786 17.7138 9.78778 17.8255C9.96769 17.9372 10.1752 17.9976 10.3876 17.9999C10.5999 18.0023 10.8088 17.9466 10.9912 17.8389C11.1736 17.7313 11.3225 17.5759 11.4214 17.3898C13.813 12.9345 15.8841 10.4369 18.7677 7.06669C18.8691 6.94844 18.9242 6.79812 18.9231 6.64305C18.9219 6.48797 18.8647 6.33844 18.7617 6.22164C18.6587 6.10483 18.5167 6.02851 18.3617 6.00654C18.2067 5.98456 18.0489 6.0184 17.9169 6.1019Z" fill="#261B97"/>
</svg>
