<svg width="64" height="64" viewBox="0 0 64 64" fill="none" xmlns="http://www.w3.org/2000/svg">
<path fill-rule="evenodd" clip-rule="evenodd" d="M20.7983 18.1586L25.797 13.8812C26.8068 19.317 31.577 23.4491 37.2967 23.4667L37.3334 23.4667L37.3757 23.4667C39.6156 23.4587 41.7096 22.8198 43.489 21.7188L48.2765 28.1021C43.2167 29.4046 39.4666 34.0063 39.4666 39.4668C39.4666 40.7945 39.6883 42.0714 40.0967 43.2625L35.805 46.4809C33.7849 42.932 29.9671 40.5334 25.6 40.5334C19.4902 40.5334 14.4554 45.2285 13.9147 51.2H8.39835C7.92366 49.3616 6.25155 48 4.26662 48C1.91363 48 0 49.9136 0 52.2666C0 54.6196 1.91363 56.5332 4.26662 56.5332C6.25155 56.5332 7.92366 55.1716 8.39835 53.3333H13.9147C14.4553 59.3048 19.4901 64 25.6 64C31.1679 64 35.843 60.1008 37.0378 54.8897L43.999 58.2505C43.8272 58.7125 43.7334 59.2121 43.7334 59.7332C43.7334 62.0863 45.6469 64 48 64C50.3531 64 52.2666 62.0864 52.2666 59.7334C52.2666 57.3804 50.3531 55.4666 48 55.4666C46.9486 55.4666 45.9849 55.8487 45.2405 56.4813L37.3268 52.6607C37.3312 52.5299 37.3334 52.3985 37.3334 52.2666C37.3334 50.9394 37.1118 49.663 36.7038 48.4723L40.9957 45.2537C43.016 48.802 46.8334 51.2001 51.2 51.2001C57.6694 51.2001 62.9334 45.9361 62.9334 39.4668C62.9334 32.9974 57.6694 27.7334 51.2 27.7334C51.0239 27.7334 50.8487 27.7373 50.6745 27.745L45.1937 20.4372C47.4264 18.4189 48.8818 15.5559 49.0503 12.3578L55.7324 15.5838C55.5606 16.0458 55.4668 16.5454 55.4668 17.0666C55.4668 19.4196 57.3804 21.3333 59.7334 21.3333C62.0864 21.3333 64 19.4198 64 17.0666C64 14.7136 62.0864 12.8 59.7334 12.8C58.682 12.8 57.7184 13.182 56.974 13.8146L48.9284 9.93031C48.0582 4.3137 43.1896 0 37.3334 0C31.0313 0 25.873 4.99528 25.6105 11.234L19.2968 16.6367C17.5081 15.1249 15.2626 14.1377 12.8 13.9147V8.39832C14.6384 7.92358 15.9999 6.25141 15.9999 4.26662C16 1.91363 14.0864 0 11.7334 0C9.38025 0 7.46663 1.91363 7.46663 4.26662C7.46663 6.25159 8.8283 7.92374 10.6667 8.39838V13.9147C4.69523 14.4554 0 19.4901 0 25.6C0 32.0694 5.264 37.3334 11.7334 37.3334C17.5053 37.3334 22.3177 33.1432 23.2883 27.6452L28.0806 31.3804C27.8572 31.8979 27.7334 32.468 27.7334 33.0666C27.7334 35.4198 29.647 37.3332 32 37.3332C34.3531 37.3332 36.2666 35.4196 36.2666 33.0666C36.2666 30.7136 34.3531 28.8 32 28.8C31.0171 28.8 30.1109 29.1339 29.3888 29.6942L23.4549 25.0693C23.3378 22.4533 22.3599 20.0573 20.7983 18.1586ZM27.7335 11.6835C27.735 11.7159 27.735 11.7484 27.7335 11.7808C27.7472 14.5991 28.9813 17.1341 30.9334 18.8832V18.1494C30.9334 16.3766 32.4161 14.9334 34.239 14.9334H40.4277C42.2506 14.9334 43.7334 16.3765 43.7334 18.1505V18.8832C45.6964 17.1243 46.9334 14.5707 46.9334 11.7334C46.9334 6.4395 42.6273 2.13337 37.3334 2.13337C32.0561 2.13337 27.7604 6.4125 27.7335 11.6835ZM59.7334 19.2C58.5569 19.2 57.6 18.2432 57.6 17.0666C57.6 15.8901 58.5568 14.9333 59.7334 14.9333C60.91 14.9333 61.8668 15.89 61.8668 17.0666C61.8666 18.2432 60.9099 19.2 59.7334 19.2ZM4.26662 54.4C3.09012 54.4 2.13325 53.4432 2.13325 52.2666C2.13325 51.09 3.09 50.1333 4.26662 50.1333C5.44312 50.1333 6.4 51.09 6.4 52.2666C6.4 53.4432 5.44325 54.4 4.26662 54.4ZM19.2 59.4165C17.237 57.6575 16 55.104 16 52.2666C16 46.9728 20.3061 42.6666 25.6 42.6666C30.8939 42.6666 35.2 46.9728 35.2 52.2666C35.2 55.104 33.963 57.6575 32 59.4165V58.6838C32 56.9099 30.5174 55.4666 28.6944 55.4666H22.5056C20.6828 55.4666 19.2 56.9099 19.2 58.6826V59.4165ZM48 61.8666C46.8235 61.8666 45.8666 60.9099 45.8666 59.7332C45.8666 58.5566 46.8235 57.6 48 57.6C49.1765 57.6 50.1334 58.5568 50.1334 59.7334C50.1334 60.91 49.1765 61.8666 48 61.8666ZM2.13337 25.6C2.13337 28.4373 3.37034 30.9909 5.33337 32.7499V32.016C5.33337 30.2432 6.81612 28.8 8.639 28.8H14.8278C16.6506 28.8 18.1334 30.2432 18.1334 32.0171V32.7499C20.0908 30.996 21.3263 28.452 21.3333 25.6244C21.333 25.6079 21.333 25.5914 21.3333 25.575C21.3198 20.2926 17.0189 16 11.7334 16C6.4395 16 2.13337 20.3061 2.13337 25.6ZM30.305 31.7723C30.0301 32.1315 29.8666 32.5803 29.8666 33.0666C29.8666 34.2432 30.8235 35.2 32 35.2C33.1765 35.2 34.1334 34.2432 34.1334 33.0666C34.1334 31.89 33.1765 30.9332 32 30.9332C31.3181 30.9332 30.7101 31.2546 30.3193 31.7538L30.3104 31.7655L30.305 31.7723ZM57.6 45.8838V46.6165C59.563 44.8575 60.8 42.304 60.8 39.4666C60.8 34.1728 56.4939 29.8666 51.2 29.8666C45.9061 29.8666 41.6 34.1728 41.6 39.4666C41.6 42.304 42.837 44.8575 44.8 46.6165V45.8826C44.8 44.1099 46.2827 42.6666 48.1056 42.6666H54.2944C56.1174 42.6666 57.6 44.1099 57.6 45.8838ZM46.9334 36.2666C46.9334 33.9136 48.8469 32 51.2 32C53.5531 32 55.4666 33.9136 55.4666 36.2666C55.4666 38.6196 53.5531 40.5332 51.2 40.5332C48.847 40.5332 46.9334 38.6198 46.9334 36.2666ZM49.0666 36.2666C49.0666 37.4432 50.0235 38.4 51.2 38.4C52.3765 38.4 53.3334 37.4432 53.3334 36.2666C53.3334 35.09 52.3765 34.1333 51.2 34.1333C50.0234 34.1333 49.0666 35.0901 49.0666 36.2666ZM55.4666 48.0586C52.8117 49.3813 49.5882 49.3813 46.9333 48.0586V45.8838C46.9333 45.2864 47.4591 44.8 48.1055 44.8H54.2943C54.9406 44.8 55.4665 45.2864 55.4665 45.8838V48.0586H55.4666ZM25.6 44.8C23.2469 44.8 21.3334 46.7136 21.3334 49.0666C21.3334 51.4198 23.247 53.3332 25.6 53.3332C27.953 53.3332 29.8666 51.4196 29.8666 49.0666C29.8666 46.7136 27.9531 44.8 25.6 44.8ZM25.6 51.2C24.4235 51.2 23.4666 50.2432 23.4666 49.0666C23.4666 47.8901 24.4234 46.9333 25.6 46.9333C26.7765 46.9333 27.7334 47.89 27.7334 49.0666C27.7334 50.2432 26.7765 51.2 25.6 51.2ZM21.3333 60.8586C23.9883 62.1813 27.2116 62.1813 29.8666 60.8586H29.8665V58.6838C29.8665 58.0864 29.3406 57.6 28.6943 57.6H22.5055C21.8591 57.6 21.3333 58.0864 21.3333 58.6838V60.8586ZM7.46675 22.4C7.46675 20.047 9.38025 18.1334 11.7334 18.1334C14.0864 18.1334 16 20.047 16 22.4C16 24.753 14.0865 26.6666 11.7334 26.6666C9.38037 26.6666 7.46675 24.753 7.46675 22.4ZM9.6 22.4C9.6 23.5766 10.5569 24.5334 11.7334 24.5334C12.9099 24.5334 13.8667 23.5766 13.8667 22.4C13.8667 21.2234 12.9099 20.2666 11.7334 20.2666C10.5568 20.2666 9.6 21.2234 9.6 22.4ZM16 34.192C13.3451 35.5146 10.1216 35.5146 7.46663 34.192V32.0171C7.46663 31.4197 7.9925 30.9334 8.63888 30.9334H14.8276C15.474 30.9334 15.9999 31.4197 15.9999 32.0171V34.192H16ZM37.3334 4.26662C34.9802 4.26662 33.0667 6.18025 33.0667 8.53325C33.0667 10.8862 34.9804 12.7999 37.3334 12.7999C39.6864 12.7999 41.6 10.8864 41.6 8.53337C41.6 6.18038 39.6864 4.26662 37.3334 4.26662ZM37.3334 10.6666C36.1569 10.6666 35.2 9.70988 35.2 8.53325C35.2 7.35675 36.1567 6.39987 37.3334 6.39987C38.51 6.39987 39.4668 7.35662 39.4668 8.53325C39.4666 9.70988 38.5099 10.6666 37.3334 10.6666ZM33.0666 20.3254C35.7216 21.648 38.9451 21.648 41.6 20.3254H41.5999V18.1505C41.5999 17.5531 41.074 17.0667 40.4276 17.0667H34.2389C33.5925 17.0667 33.0666 17.5531 33.0666 18.1505V20.3254ZM11.7334 6.4C10.5569 6.4 9.6 5.44325 9.6 4.26662C9.6 3.09013 10.5568 2.13325 11.7334 2.13325C12.9099 2.13325 13.8667 3.09 13.8667 4.26662C13.8666 5.44325 12.9099 6.4 11.7334 6.4Z" fill="url(#paint0_linear_4042_2521)"/>
<defs>
<linearGradient id="paint0_linear_4042_2521" x1="29.0851" y1="78.034" x2="81.8446" y2="26.3797" gradientUnits="userSpaceOnUse">
<stop stop-color="#14317F"/>
<stop offset="1" stop-color="#F319F9"/>
</linearGradient>
</defs>
</svg>
