<svg width="62" height="66" viewBox="0 0 62 66" fill="none" xmlns="http://www.w3.org/2000/svg">
<path fill-rule="evenodd" clip-rule="evenodd" d="M60.7211 63.4271H57.9161V22.4582C57.9161 20.5513 56.3738 19 54.4782 19H48.2087C46.313 19 44.7708 20.5515 44.7708 22.4582V63.4271H37.6484V41.0203C37.6484 39.1134 36.1062 37.5621 34.2105 37.5621H27.9409C26.0452 37.5621 24.503 39.1135 24.503 41.0203V63.4271H17.3807V51.8228C17.3807 49.9159 15.8383 48.3645 13.9428 48.3645H7.67304C5.77735 48.3645 4.23515 49.916 4.23515 51.8228V63.4271H1.27888C0.572556 63.4271 0 64.003 0 64.7135C0 65.4241 0.572556 66 1.27888 66H60.7211C61.4274 66 62 65.4241 62 64.7135C62 64.003 61.4274 63.4271 60.7211 63.4271ZM14.8226 63.4271H6.79279V51.8228C6.79279 51.3346 7.18758 50.9375 7.67292 50.9375H13.9425C14.4278 50.9375 14.8226 51.3346 14.8226 51.8228V63.4271ZM35.0905 63.4271H27.0607V41.0203C27.0607 40.5321 27.4554 40.135 27.9408 40.135H34.2104C34.6956 40.135 35.0905 40.5321 35.0905 41.0203V63.4271ZM55.3584 63.4271H47.3285V22.4582C47.3285 21.97 47.7233 21.5729 48.2087 21.5729H54.4782C54.9636 21.5729 55.3584 21.97 55.3584 22.4582V63.4271Z" fill="url(#paint0_linear_4042_2510)"/>
<path fill-rule="evenodd" clip-rule="evenodd" d="M57.9969 1.35974C58.0149 1.00687 57.8919 0.648062 57.6251 0.378596C57.3583 0.109131 57.0031 -0.0151283 56.6537 0.00310325C56.6331 0.00219813 56.6127 0 56.5917 0H48.8463C48.1392 0 47.5661 0.578885 47.5661 1.29302C47.5661 2.00715 48.1392 2.58604 48.8463 2.58604H53.6289L40.9729 15.3686L36.2001 10.5482C35.9601 10.3058 35.6344 10.1695 35.2949 10.1695C34.9554 10.1695 34.6297 10.3058 34.3896 10.5482L11.3749 33.7928C10.875 34.2977 10.875 35.1165 11.3749 35.6215C11.625 35.8738 11.9526 36 12.2802 36C12.6078 36 12.9356 35.8738 13.1855 35.6213L35.2949 13.291L40.0676 18.1113C40.5675 18.6163 41.3782 18.6163 41.8782 18.1113L55.4395 4.41476V8.78646C55.4395 9.50059 56.0127 10.0795 56.7198 10.0795C57.4268 10.0795 58 9.50059 58 8.78646V1.42232C58 1.40125 57.9978 1.38069 57.9969 1.35974Z" fill="url(#paint1_linear_4042_2510)"/>
<circle cx="7.5" cy="39.5" r="1.5" fill="url(#paint2_linear_4042_2510)"/>
<defs>
<linearGradient id="paint0_linear_4042_2510" x1="28.1762" y1="76.3062" x2="65.6957" y2="27.8492" gradientUnits="userSpaceOnUse">
<stop stop-color="#14317F"/>
<stop offset="1" stop-color="#F319F9"/>
</linearGradient>
<linearGradient id="paint1_linear_4042_2510" x1="32.3594" y1="43.8941" x2="61.1709" y2="7.06701" gradientUnits="userSpaceOnUse">
<stop stop-color="#14317F"/>
<stop offset="1" stop-color="#F319F9"/>
</linearGradient>
<linearGradient id="paint2_linear_4042_2510" x1="7.36336" y1="41.6578" x2="9.83646" y2="39.2366" gradientUnits="userSpaceOnUse">
<stop stop-color="#14317F"/>
<stop offset="1" stop-color="#F319F9"/>
</linearGradient>
</defs>
</svg>
