<svg width="85" height="74" viewBox="0 0 85 74" fill="none" xmlns="http://www.w3.org/2000/svg">
<path fill-rule="evenodd" clip-rule="evenodd" d="M68 51.0544V45.0884C68 44.3948 67.4526 43.8324 66.7775 43.8324C66.1023 43.8324 65.5549 44.3948 65.5549 45.0884V51.0544C65.5549 51.2852 65.3721 51.473 65.1475 51.473H48.8928C48.3932 45.6117 51.6977 39.8988 57.2301 37.7045C58.3323 37.2674 58.9194 36.0156 58.5669 34.8544L56.9812 29.6273C56.7982 29.0245 56.3771 28.5186 55.8259 28.2391C55.2725 27.9586 54.6219 27.9231 54.0413 28.1422C48.5141 30.2272 44.0239 34.375 41.3975 39.8216C38.7622 45.2871 38.2815 51.497 40.0442 57.3071C41.9586 63.6176 46.3504 68.7843 52.1637 71.607C52.0112 72.2251 52.1646 72.8756 52.5921 73.3624C53.089 73.931 53.8479 74.1352 54.5415 73.9106L61.8738 71.5625C62.3985 71.3946 62.8233 71.0004 63.0395 70.4813C63.2556 69.9622 63.2397 69.3744 62.9956 68.8684L59.5851 61.798C59.2565 61.1167 58.5932 60.7079 57.8531 60.728C57.1133 60.7493 56.473 61.1967 56.1819 61.8957L56.0138 62.2994C52.8628 60.6517 50.4882 57.7803 49.4325 54.3004C49.4007 54.1956 49.3742 54.0903 49.345 53.9854H65.1471C66.7203 53.9854 68 52.6705 68 51.0544ZM55.8691 65.0012C56.6522 65.3445 57.5625 64.9678 57.8979 64.1616L57.9435 64.0522L60.5079 69.3684L54.8616 71.1765C54.8683 70.9579 54.8302 70.7382 54.7474 70.5294C54.5925 70.138 54.2986 69.831 53.9199 69.6648C48.3724 67.228 44.1657 62.4513 42.3783 56.5594C39.1395 45.8833 44.55 34.5074 54.7054 30.5686L56.1798 35.4292C48.6694 38.5116 44.6839 47.0902 47.098 55.0479C48.4566 59.526 51.6534 63.1536 55.8691 65.0012Z" fill="url(#paint0_linear_4042_2457)"/>
<circle cx="9.5" cy="9.5" r="2.5" fill="url(#paint1_linear_4042_2457)"/>
<circle cx="16.5" cy="9.5" r="2.5" fill="url(#paint2_linear_4042_2457)"/>
<circle cx="24.5" cy="9.5" r="2.5" fill="url(#paint3_linear_4042_2457)"/>
<path fill-rule="evenodd" clip-rule="evenodd" d="M83.936 42.997C81.9325 36.5839 77.3088 31.4038 71.176 28.6568L71.1818 28.6434C71.4785 27.9517 71.3489 27.1751 70.8435 26.6167C70.3382 26.0582 69.5768 25.8504 68.8571 26.0743L67.7425 26.421V2.9002C67.7425 1.30103 66.4384 0 64.8356 0H15.5847C14.8967 0 14.3389 0.55652 14.3389 1.2429C14.3389 1.92927 14.8967 2.48579 15.5847 2.48579H64.8356C65.0645 2.48579 65.2508 2.67163 65.2508 2.90003V16.4064H2.49156V2.9002C2.49156 2.67179 2.67783 2.48596 2.90677 2.48596H9.25321C9.94118 2.48596 10.499 1.92944 10.499 1.24306C10.499 0.556686 9.94118 0.000165631 9.25321 0.000165631H2.90693C1.30405 0 0 1.30103 0 2.9002V50.7043C0 52.3035 1.30405 53.6045 2.90693 53.6045H32.8716C33.5596 53.6045 34.1174 53.048 34.1174 52.3616C34.1174 51.6752 33.5596 51.1187 32.8716 51.1187H2.90693C2.678 51.1187 2.49173 50.9329 2.49173 50.7045V18.8925H65.2508V27.1958L61.3853 28.3979C60.8507 28.5641 60.4177 28.954 60.1974 29.4677C59.9771 29.9814 59.9934 30.5631 60.2421 31.0638L63.7174 38.06C64.0523 38.7341 64.7306 39.1384 65.4824 39.1187C66.2362 39.0977 66.8887 38.655 67.1852 37.9633L67.2343 37.8487C70.663 39.4367 73.2389 42.3553 74.369 45.9724C76.4583 52.6602 72.9682 59.8736 66.4232 62.3942C65.3004 62.8267 64.7021 64.0656 65.0612 65.2144L66.677 70.3866C67.0331 71.6145 68.4814 72.3208 69.6729 71.8562C75.305 69.7931 79.8806 65.6888 82.5569 60.2993C85.2424 54.8909 85.7321 48.7462 83.936 42.997ZM68.9959 69.4549L67.4933 64.6451C75.1465 61.595 79.2077 53.1064 76.7477 45.2322C75.3027 40.6071 71.867 36.9452 67.3212 35.185C66.5923 34.9026 65.7873 35.1921 65.3982 35.8455L62.777 30.5685L68.4316 28.8102C68.3651 29.1186 68.3933 29.4394 68.5168 29.7377C68.6778 30.127 68.9952 30.4407 69.3874 30.5983C75.2491 32.9548 79.6848 37.7435 81.5572 43.7367C84.8575 54.301 79.3442 65.5576 68.9959 69.4549Z" fill="url(#paint4_linear_4042_2457)"/>
<path fill-rule="evenodd" clip-rule="evenodd" d="M9.6076 22C7.61827 22 6 23.6184 6 25.6076V37.3924C6 39.3817 7.61827 41 9.6076 41H21.3924C23.3817 41 25 39.3817 25 37.3924V25.716C25 23.667 23.333 22 21.284 22H9.6076ZM22.5227 25.716V37.3924C22.5227 38.0157 22.0157 38.5227 21.3924 38.5227H9.6076C8.98433 38.5227 8.47726 38.0157 8.47726 37.3924V25.6076C8.47726 24.9843 8.98433 24.4773 9.6076 24.4773H21.2841C21.9671 24.4774 22.5227 25.033 22.5227 25.716Z" fill="url(#paint5_linear_4042_2457)"/>
<path fill-rule="evenodd" clip-rule="evenodd" d="M30.1758 26H38.8242C39.4735 26 40 25.5522 40 25C40 24.4478 39.4735 24 38.8242 24H30.1758C29.5265 24 29 24.4478 29 25C29 25.5522 29.5265 26 30.1758 26Z" fill="url(#paint6_linear_4042_2457)"/>
<path fill-rule="evenodd" clip-rule="evenodd" d="M30.1758 31H38.8242C39.4735 31 40 30.5522 40 30C40 29.4478 39.4735 29 38.8242 29H30.1758C29.5265 29 29 29.4478 29 30C29 30.5522 29.5265 31 30.1758 31Z" fill="url(#paint7_linear_4042_2457)"/>
<defs>
<linearGradient id="paint0_linear_4042_2457" x1="52.1792" y1="84.0869" x2="86.0844" y2="63.1596" gradientUnits="userSpaceOnUse">
<stop stop-color="#14317F"/>
<stop offset="1" stop-color="#F319F9"/>
</linearGradient>
<linearGradient id="paint1_linear_4042_2457" x1="9.27227" y1="13.0964" x2="13.3941" y2="9.06092" gradientUnits="userSpaceOnUse">
<stop stop-color="#14317F"/>
<stop offset="1" stop-color="#F319F9"/>
</linearGradient>
<linearGradient id="paint2_linear_4042_2457" x1="16.2723" y1="13.0964" x2="20.3941" y2="9.06092" gradientUnits="userSpaceOnUse">
<stop stop-color="#14317F"/>
<stop offset="1" stop-color="#F319F9"/>
</linearGradient>
<linearGradient id="paint3_linear_4042_2457" x1="24.2723" y1="13.0964" x2="28.3941" y2="9.06092" gradientUnits="userSpaceOnUse">
<stop stop-color="#14317F"/>
<stop offset="1" stop-color="#F319F9"/>
</linearGradient>
<linearGradient id="paint4_linear_4042_2457" x1="38.6287" y1="87.7882" x2="97.3792" y2="19.8828" gradientUnits="userSpaceOnUse">
<stop stop-color="#14317F"/>
<stop offset="1" stop-color="#F319F9"/>
</linearGradient>
<linearGradient id="paint5_linear_4042_2457" x1="14.6346" y1="45.1663" x2="30.2976" y2="29.8315" gradientUnits="userSpaceOnUse">
<stop stop-color="#14317F"/>
<stop offset="1" stop-color="#F319F9"/>
</linearGradient>
<linearGradient id="paint6_linear_4042_2457" x1="33.999" y1="26.4386" x2="34.5911" y2="23.2503" gradientUnits="userSpaceOnUse">
<stop stop-color="#14317F"/>
<stop offset="1" stop-color="#F319F9"/>
</linearGradient>
<linearGradient id="paint7_linear_4042_2457" x1="33.999" y1="31.4386" x2="34.5911" y2="28.2503" gradientUnits="userSpaceOnUse">
<stop stop-color="#14317F"/>
<stop offset="1" stop-color="#F319F9"/>
</linearGradient>
</defs>
</svg>
