<svg width="60" height="60" viewBox="0 0 60 60" fill="none" xmlns="http://www.w3.org/2000/svg">
<g id="sem">
<path id="Path" fill-rule="evenodd" clip-rule="evenodd" d="M16.4516 11.6129C17.519 11.6129 18.3871 12.481 18.3871 13.5484H20.3226C20.3226 11.7494 19.0839 10.2474 17.4194 9.81485V7.74194H15.4839V9.67743H12.5806V13.5484C12.5806 15.6832 14.3168 17.4194 16.4516 17.4194C17.519 17.4194 18.3871 18.2874 18.3871 19.3548V21.2903H16.4516C15.3842 21.2903 14.5161 20.4223 14.5161 19.3548H12.5806C12.5806 21.1539 13.8194 22.6558 15.4839 23.0884V25.1613H17.4194V23.2258H20.3226V19.3548C20.3226 17.22 18.5864 15.4839 16.4516 15.4839C15.3842 15.4839 14.5161 14.6158 14.5161 13.5484V11.6129H16.4516Z" fill="url(#paint0_linear_4042_2495)"/>
<path id="Shape" fill-rule="evenodd" clip-rule="evenodd" d="M46.4516 39.6774H56.129C58.2639 39.6774 60 37.9413 60 35.8064V28.0645C60 25.9297 58.2639 24.1935 56.129 24.1935H52.2581V17.4194H42.5806V19.3548H40.7623C39.7132 19.3548 38.6855 18.929 37.9423 18.1868C37.1894 17.4339 36.7742 16.4323 36.7742 15.3668V9.11032C36.7742 7.82226 35.7261 6.77419 34.4381 6.77419C33.8235 6.77419 33.2216 7.02387 32.7861 7.45839C32.1794 8.06613 31.7168 8.77839 31.4081 9.55258C28.7826 3.89903 23.0419 0 16.4516 0C7.38 0 0 7.38 0 16.4516C0 25.5232 7.38 32.9032 16.4516 32.9032C18.5129 32.9032 20.5006 32.5152 22.3887 31.7816C22.7429 32.9845 23.8452 33.871 25.1613 33.871H38.5055C39.4645 33.871 40.3926 33.5903 41.189 33.0581L42.5806 32.131V33.871H52.2581V26.129H56.129C57.1965 26.129 58.0645 26.9971 58.0645 28.0645V35.8064C58.0645 36.8739 57.1965 37.7419 56.129 37.7419H46.4516C44.3168 37.7419 42.5806 39.4781 42.5806 41.6129C42.5806 43.7477 44.3168 45.4839 46.4516 45.4839H56.129C57.1965 45.4839 58.0645 46.3519 58.0645 47.4194C58.0645 48.4868 57.1965 49.3548 56.129 49.3548H27.0968C27.0968 44.5519 23.189 40.6452 18.3871 40.6452H9.67742C4.34129 40.6452 0 44.9865 0 50.3226C0 55.6587 4.34129 60 9.67742 60H18.3871C23.189 60 27.0968 56.0932 27.0968 51.2903H56.129C58.2639 51.2903 60 49.5542 60 47.4194C60 45.2845 58.2639 43.5484 56.129 43.5484H46.4516C45.3842 43.5484 44.5161 42.6803 44.5161 41.6129C44.5161 40.5455 45.3842 39.6774 46.4516 39.6774ZM1.93548 16.4516C1.93548 8.44742 8.44742 1.93548 16.4516 1.93548C24.1084 1.93548 30.4723 7.89 30.9648 15.4994C30.9561 16.0258 30.5284 16.4516 30 16.4516H29.0323C29.0323 9.51484 23.3884 3.87097 16.4516 3.87097C9.51484 3.87097 3.87097 9.51484 3.87097 16.4516C3.87097 23.3884 9.51484 29.0323 16.4516 29.0323C18.5158 29.0323 20.5171 28.5232 22.3065 27.5797C22.4003 28.1342 22.651 28.6316 23.0129 29.0323C22.8639 29.1968 22.7381 29.3797 22.6297 29.5752C20.6913 30.4906 18.6165 30.9677 16.4516 30.9677C8.44742 30.9677 1.93548 24.4558 1.93548 16.4516ZM22.2581 19.3548C22.2581 20.101 22.5494 20.7755 23.0129 21.2903C22.5484 21.8052 22.2581 22.4797 22.2581 23.2258C22.2581 23.8781 22.4816 24.4732 22.8455 24.959C21.0087 26.3419 18.7761 27.0968 16.4516 27.0968C10.5823 27.0968 5.80645 22.321 5.80645 16.4516C5.80645 10.5823 10.5823 5.80645 16.4516 5.80645C22.321 5.80645 27.0968 10.5823 27.0968 16.4516H25.1613C23.5606 16.4516 22.2581 17.7542 22.2581 19.3548ZM42.2874 30L40.1148 31.4477C39.6377 31.7671 39.0813 31.9355 38.5055 31.9355H25.1613C24.6281 31.9355 24.1935 31.5019 24.1935 30.9677C24.1935 30.4335 24.6281 30 25.1613 30H28.0645V28.0645H25.1613C24.6281 28.0645 24.1935 27.631 24.1935 27.0968C24.1935 26.5626 24.6281 26.129 25.1613 26.129H28.0645V24.1936H25.1613C24.6281 24.1936 24.1935 23.76 24.1935 23.2258C24.1935 22.6916 24.6281 22.2581 25.1613 22.2581H28.0645V20.3226H25.1613C24.6281 20.3226 24.1935 19.889 24.1935 19.3548C24.1935 18.8206 24.6281 18.3871 25.1613 18.3871H30C31.6006 18.3871 32.9032 17.0845 32.9032 15.4839V11.8471C32.9032 10.7061 33.3474 9.63387 34.1535 8.82774C34.3858 8.59355 34.8387 8.78419 34.8387 9.11032V15.3668C34.8387 16.95 35.4552 18.4374 36.5739 19.5552C37.6935 20.6739 39.181 21.2903 40.7623 21.2903H42.5806V30H42.2874ZM50.3226 31.9355H44.5161V19.3548H50.3226V31.9355ZM24.8758 47.4194H20.3226C19.0626 47.4194 17.9981 48.2313 17.5974 49.3548H15.4839V42.5806H18.3871C21.45 42.5806 24.0406 44.6245 24.8758 47.4194ZM25.1613 51.2903H20.3226C19.7894 51.2903 19.3548 50.8568 19.3548 50.3226C19.3548 49.7884 19.7894 49.3548 20.3226 49.3548H25.1613V51.2903ZM1.93548 50.3226C1.93548 46.0539 5.40871 42.5806 9.67742 42.5806H13.5484V58.0645H9.67742C5.40871 58.0645 1.93548 54.5913 1.93548 50.3226ZM18.3871 58.0645H15.4839V51.2903H17.5974C17.9981 52.4139 19.0626 53.2258 20.3226 53.2258H24.8758C24.0406 56.0197 21.45 58.0645 18.3871 58.0645Z" fill="url(#paint1_linear_4042_2495)"/>
</g>
<defs>
<linearGradient id="paint0_linear_4042_2495" x1="16.099" y1="28.981" x2="26.6088" y2="24.4078" gradientUnits="userSpaceOnUse">
<stop stop-color="#14317F"/>
<stop offset="1" stop-color="#F319F9"/>
</linearGradient>
<linearGradient id="paint1_linear_4042_2495" x1="27.2673" y1="73.1568" x2="76.7293" y2="24.731" gradientUnits="userSpaceOnUse">
<stop stop-color="#14317F"/>
<stop offset="1" stop-color="#F319F9"/>
</linearGradient>
</defs>
</svg>
