<svg width="62" height="62" viewBox="0 0 62 62" fill="none" xmlns="http://www.w3.org/2000/svg">
<path fill-rule="evenodd" clip-rule="evenodd" d="M61 36H42V29C42.0073 25.2995 39.1332 22.2326 35.44 22C35.9722 21.4204 36.3836 20.7405 36.65 20H38C39.452 19.9887 40.6875 18.9392 40.9334 17.5081C41.1793 16.077 40.365 14.6753 39 14.18V12C39 7.58172 35.4183 4 31 4C26.5817 4 23 7.58172 23 12V14.18C21.635 14.6753 20.8207 16.077 21.0666 17.5081C21.3125 18.9392 22.548 19.9887 24 20H25.35C25.6164 20.7405 26.0277 21.4204 26.56 22C22.8668 22.2326 19.9927 25.2995 20 29V36H1C0.447715 36 0 36.4477 0 37V41C0 41.5523 0.447715 42 1 42H2V61C2 61.5523 2.44772 62 3 62H7C7.55228 62 8 61.5523 8 61V60H54V61C54 61.5523 54.4477 62 55 62H59C59.5523 62 60 61.5523 60 61V42H61C61.5523 42 62 41.5523 62 41V37C62 36.4477 61.5523 36 61 36ZM27 18V15H27.76C28.9721 15.0061 30.1372 14.5314 31 13.68C31.8628 14.5314 33.0279 15.0061 34.24 15H35V18C35 20.2091 33.2091 22 31 22C28.7909 22 27 20.2091 27 18ZM33 24C33 25.1046 32.1046 26 31 26C29.8954 26 29 25.1046 29 24H33ZM38 18H37V16H38C38.5523 16 39 16.4477 39 17C39 17.5523 38.5523 18 38 18ZM24 18C23.4477 18 23 17.5523 23 17C23 16.4477 23.4477 16 24 16H25V18H24ZM25 14V12C25 8.68629 27.6863 6 31 6C34.3137 6 37 8.68629 37 12V14C37 13.4477 36.5523 13 36 13H34.24C33.2442 13.0046 32.3326 12.4421 31.89 11.55C31.7189 11.216 31.3752 11.006 31 11.006C30.6248 11.006 30.2811 11.216 30.11 11.55C29.6674 12.4421 28.7558 13.0046 27.76 13H26C25.4477 13 25 13.4477 25 14ZM22 29C22 26.2386 24.2386 24 27 24C27 26.2091 28.7909 28 31 28C33.2091 28 35 26.2091 35 24C36.3261 24 37.5979 24.5268 38.5355 25.4645C39.4732 26.4021 40 27.6739 40 29V36H38V28H36V36H26V28H24V36H22V29ZM4 60V42H6V60H4ZM8 58V42H54V58H8ZM58 60H56V42H58V60ZM60 40H2V38H60V40Z" fill="url(#paint0_linear_4042_2585)"/>
<path fill-rule="evenodd" clip-rule="evenodd" d="M60.9872 0H48.834C48.2747 0 47.8212 0.447715 47.8212 1V3H43.7701C43.5009 2.99846 43.2422 3.10281 43.0511 3.29L39 7.29L40.4381 8.71L44.1854 5H47.8212V9C47.8212 9.55229 48.2747 10 48.834 10H60.9872C61.5466 10 62 9.55229 62 9V1C62 0.447715 61.5466 0 60.9872 0ZM57.6451 2L54.9106 3.8L52.1761 2H57.6451ZM49.8468 8V2.87L54.3536 5.87C54.6916 6.08978 55.1296 6.08978 55.4676 5.87L59.9745 2.87V8H49.8468Z" fill="url(#paint1_linear_4042_2585)"/>
<path fill-rule="evenodd" clip-rule="evenodd" d="M2.90189 33H6.77107C8.37374 33 9.67296 31.6569 9.67296 30V26H15.4767C15.7338 26.0015 15.981 25.8972 16.1635 25.71L21 20.71L19.6264 19.29L15.0801 24H9.67296V22C9.67296 20.3431 8.37374 19 6.77107 19H2.90189C1.29922 19 0 20.3431 0 22V30C0 31.6569 1.29922 33 2.90189 33ZM6.77107 31H2.90189C2.36767 31 1.93459 30.5523 1.93459 30V29H7.73837V30C7.73837 30.5523 7.3053 31 6.77107 31ZM2.90189 21H6.77107C7.3053 21 7.73837 21.4477 7.73837 22V27H1.93459V22C1.93459 21.4477 2.36767 21 2.90189 21Z" fill="url(#paint2_linear_4042_2585)"/>
<path fill-rule="evenodd" clip-rule="evenodd" d="M3.03831 14H15.1915C16.8696 14 18.2299 12.6569 18.2299 11V9C18.2299 8.44771 17.7764 8 17.2171 8H16.2043V5H17.8146L21.5619 8.71L23 7.29L18.9489 3.29C18.7578 3.10281 18.4991 2.99846 18.2299 3H16.2043C16.2043 1.34315 14.844 0 13.166 0H5.06385C3.38584 0 2.02554 1.34315 2.02554 3V8H1.01277C0.453432 8 0 8.44771 0 9V11C0 12.6569 1.3603 14 3.03831 14ZM4.05108 3C4.05108 2.44772 4.50451 2 5.06385 2H13.166C13.7253 2 14.1788 2.44772 14.1788 3V8H4.05108V3ZM2.02554 10H16.2043V11C16.2043 11.5523 15.7509 12 15.1915 12H3.03831C2.47897 12 2.02554 11.5523 2.02554 11V10Z" fill="url(#paint3_linear_4042_2585)"/>
<path fill-rule="evenodd" clip-rule="evenodd" d="M61.0343 19H51.3771C50.8438 19 50.4114 19.4477 50.4114 20V24H47.9102L43.3713 19.29L42 20.71L46.8286 25.71C47.0108 25.8972 47.2576 26.0015 47.5142 26H50.4114V32C50.4114 32.5523 50.8438 33 51.3771 33H61.0343C61.5676 33 62 32.5523 62 32V20C62 19.4477 61.5676 19 61.0343 19ZM60.0686 31H52.3428V21H60.0686V31Z" fill="url(#paint4_linear_4042_2585)"/>
<rect x="55" y="24" width="4" height="2" fill="url(#paint5_linear_4042_2585)"/>
<rect x="55" y="28" width="4" height="2" fill="url(#paint6_linear_4042_2585)"/>
<defs>
<linearGradient id="paint0_linear_4042_2585" x1="28.1762" y1="74.7183" x2="75.9507" y2="24.7188" gradientUnits="userSpaceOnUse">
<stop stop-color="#14317F"/>
<stop offset="1" stop-color="#F319F9"/>
</linearGradient>
<linearGradient id="paint1_linear_4042_2585" x1="49.4525" y1="12.1928" x2="55.5695" y2="-1.58172" gradientUnits="userSpaceOnUse">
<stop stop-color="#14317F"/>
<stop offset="1" stop-color="#F319F9"/>
</linearGradient>
<linearGradient id="paint2_linear_4042_2585" x1="9.54355" y1="36.0699" x2="20.2844" y2="20.2962" gradientUnits="userSpaceOnUse">
<stop stop-color="#14317F"/>
<stop offset="1" stop-color="#F319F9"/>
</linearGradient>
<linearGradient id="paint3_linear_4042_2585" x1="10.4525" y1="17.0699" x2="20.8048" y2="0.418759" gradientUnits="userSpaceOnUse">
<stop stop-color="#14317F"/>
<stop offset="1" stop-color="#F319F9"/>
</linearGradient>
<linearGradient id="paint4_linear_4042_2585" x1="51.0891" y1="36.0699" x2="62.0123" y2="20.7923" gradientUnits="userSpaceOnUse">
<stop stop-color="#14317F"/>
<stop offset="1" stop-color="#F319F9"/>
</linearGradient>
<linearGradient id="paint5_linear_4042_2585" x1="56.8178" y1="26.4386" x2="58.1538" y2="23.8226" gradientUnits="userSpaceOnUse">
<stop stop-color="#14317F"/>
<stop offset="1" stop-color="#F319F9"/>
</linearGradient>
<linearGradient id="paint6_linear_4042_2585" x1="56.8178" y1="30.4386" x2="58.1538" y2="27.8226" gradientUnits="userSpaceOnUse">
<stop stop-color="#14317F"/>
<stop offset="1" stop-color="#F319F9"/>
</linearGradient>
</defs>
</svg>
