<svg width="65" height="70" viewBox="0 0 65 70" fill="none" xmlns="http://www.w3.org/2000/svg">
<path fill-rule="evenodd" clip-rule="evenodd" d="M63.4393 28.2565H14.3149L61.4994 15.2778C61.8661 15.1768 62.1755 14.9413 62.36 14.6241C62.5444 14.3063 62.5883 13.9325 62.482 13.5843L60.0129 5.49065C59.0263 2.258 55.8563 0 52.3039 0C51.5553 0 50.8095 0.100937 50.0862 0.299606L5.78478 12.4852C3.73577 13.0486 2.03773 14.3421 1.00226 16.1264C-0.0326473 17.9107 -0.275626 19.9652 0.317759 21.9102L2.73011 29.8175V62.3913C2.73011 66.5868 6.32473 70 10.7428 70H28.0449C28.8402 70 29.4847 69.388 29.4847 68.6328C29.4847 67.8777 28.8402 67.2656 28.0449 67.2656H10.7433C7.91252 67.2656 5.60985 65.0792 5.60985 62.3913V43.7858H12.9864H12.9898H12.9926H24.2686H24.272H24.2753H35.5513H35.5547H35.5581H46.8341H46.8375H46.8403H61.9994V62.3913C61.9994 65.0792 59.6968 67.2656 56.8659 67.2656H39.5639C38.7691 67.2656 38.124 67.8777 38.124 68.6328C38.124 69.388 38.7691 70 39.5639 70H56.8659C61.2846 70 64.8792 66.5868 64.8792 62.3913V29.6236C64.8792 28.8685 64.2346 28.2565 63.4393 28.2565ZM38.0498 41.0514L44.1675 30.9908H52.1245L46.0073 41.0514H38.0498ZM26.767 41.0514L32.8848 30.9908H40.8418L34.7246 41.0514H26.767ZM15.4848 41.0514L21.602 30.9908H29.5596L23.4418 41.0514H15.4848ZM20.8382 23.3522L10.5938 14.0094L18.2695 11.8983C18.3235 11.973 18.3865 12.0435 18.4585 12.1092L28.703 21.452L21.0272 23.5631C20.9732 23.4884 20.9097 23.4173 20.8382 23.3522ZM40.1325 6.14754L50.377 15.4903L42.7012 17.6015C42.6472 17.5267 42.5842 17.4557 42.5122 17.3905L32.2678 8.04771L39.9435 5.93658C39.9975 6.01135 40.0605 6.08185 40.1325 6.14754ZM29.2952 9.12865L39.5397 18.4709L31.8639 20.5826C31.8099 20.5078 31.7469 20.4368 31.6749 20.3716L21.4305 11.0288L29.1062 8.91769C29.1608 8.99193 29.2238 9.06296 29.2952 9.12865ZM50.8877 2.9261C51.35 2.799 51.8264 2.73438 52.304 2.73438C54.5824 2.73438 56.6146 4.1806 57.2468 6.25168L59.3155 13.0315L53.5385 14.6204C53.484 14.5456 53.421 14.4751 53.349 14.4094L43.1051 5.06714L50.8877 2.9261ZM3.52489 17.4455C4.18858 16.301 5.27579 15.4722 6.5863 15.1117L7.43223 14.8788C7.48679 14.9536 7.54978 15.0246 7.62121 15.0898L17.8657 24.4326L5.15262 27.9296L3.08392 21.1497C2.70427 19.9059 2.86119 18.5905 3.52489 17.4455ZM5.60989 30.9908H18.2768L12.1596 41.0514H5.60989V30.9908ZM49.3325 41.0514L55.4497 30.9908H61.9995V41.0514H49.3325Z" fill="url(#paint0_linear_4042_2475)"/>
<path fill-rule="evenodd" clip-rule="evenodd" d="M43.6073 55.4999C43.6073 54.9996 43.3442 54.5376 42.9171 54.2877L30.7879 47.1874C30.3608 46.9375 29.8344 46.9375 29.4073 47.1874C28.9802 47.4373 28.717 47.8994 28.717 48.3997V62.6002C28.717 63.1 28.9802 63.562 29.4073 63.8119C29.6209 63.9371 29.8593 64 30.0976 64C30.336 64 30.5744 63.9371 30.7879 63.8119L42.9171 56.7122C43.3442 56.4623 43.6073 56.0003 43.6073 55.4999ZM31.4782 60.1757V50.8242L39.4656 55.4999L31.4782 60.1757Z" fill="url(#paint1_linear_4042_2475)"/>
<path fill-rule="evenodd" clip-rule="evenodd" d="M33.5032 67C32.6245 67 31.9078 67.6738 31.9078 68.5C31.9078 69.3262 32.6245 70 33.5032 70C34.3825 70 35.0986 69.3262 35.0986 68.5C35.0986 67.6738 34.3825 67 33.5032 67Z" fill="url(#paint2_linear_4042_2475)"/>
<defs>
<linearGradient id="paint0_linear_4042_2475" x1="29.4847" y1="85.3496" x2="86.932" y2="33.2202" gradientUnits="userSpaceOnUse">
<stop stop-color="#14317F"/>
<stop offset="1" stop-color="#F319F9"/>
</linearGradient>
<linearGradient id="paint1_linear_4042_2475" x1="35.484" y1="67.7278" x2="49.3375" y2="55.8477" gradientUnits="userSpaceOnUse">
<stop stop-color="#14317F"/>
<stop offset="1" stop-color="#F319F9"/>
</linearGradient>
<linearGradient id="paint2_linear_4042_2475" x1="33.3579" y1="70.6578" x2="35.8295" y2="68.0841" gradientUnits="userSpaceOnUse">
<stop stop-color="#14317F"/>
<stop offset="1" stop-color="#F319F9"/>
</linearGradient>
</defs>
</svg>
