<svg width="74" height="74" viewBox="0 0 74 74" fill="none" xmlns="http://www.w3.org/2000/svg">
<path fill-rule="evenodd" clip-rule="evenodd" d="M71.5333 46.8667H72.7667C73.4478 46.8667 74 47.4189 74 48.1V72.7667C74 73.4478 73.4478 74 72.7667 74H35.7667C35.0855 74 34.5334 73.4478 34.5333 72.7667V69.0667H22.2C21.5189 69.0666 20.9667 68.5145 20.9667 67.8333V59.2H11.1V66.6C11.1 66.8435 11.0279 67.0815 10.8928 67.2841L8.42617 70.9841C8.19745 71.3272 7.81237 71.5333 7.4 71.5333C6.98763 71.5333 6.60255 71.3272 6.37383 70.9841L3.90716 67.2841C3.77211 67.0815 3.70003 66.8435 3.7 66.6V41.9333H2.46667V50.5667H0V40.7C3.3203e-05 40.0189 0.552196 39.4667 1.23333 39.4667H3.7V33.3C3.70003 32.6189 4.2522 32.0667 4.93333 32.0667V25.9C4.93337 25.2189 5.48553 24.6667 6.16667 24.6667H20.9667V11.1C20.9667 10.4189 21.5189 9.8667 22.2 9.86667H27.1333V1.23333C27.1334 0.552196 27.6855 3.3203e-05 28.3667 0H70.3C70.9811 3.3203e-05 71.5333 0.552196 71.5333 1.23333V46.8667ZM59.2 64.1333L70.3 49.3333H38.2333L49.3333 64.1333C50.4979 65.6861 52.3257 66.6 54.2667 66.6C56.2077 66.6 58.0354 65.6861 59.2 64.1333ZM69.0667 2.46667H29.6V9.86667H64.1333C64.8145 9.8667 65.3666 10.4189 65.3667 11.1V46.8667H69.0667V2.46667ZM25.9 27.1333H7.4V32.0667H9.86667C10.5478 32.0667 11.1 32.6189 11.1 33.3V38.2333H25.9V27.1333ZM20.9667 40.7H11.1V43.1667H20.9667V40.7ZM8.63333 34.5333H6.16667V39.4667H8.63333V34.5333ZM6.16667 66.2266L7.4 68.0766L8.63333 66.2266V41.9333H6.16667V66.2266ZM25.9 45.6333H11.1V56.7333H25.9V45.6333ZM23.4333 59.2V66.6H34.5333V48.1C34.5334 47.4189 35.0855 46.8667 35.7667 46.8667H62.9V12.3333H23.4333V24.6667H27.1333C27.8145 24.6667 28.3666 25.2189 28.3667 25.9V39.4667C28.3666 40.1478 27.8145 40.7 27.1333 40.7H23.4333V43.1667H27.1333C27.8145 43.1667 28.3666 43.7189 28.3667 44.4V57.9667C28.3666 58.6478 27.8145 59.2 27.1333 59.2H23.4333ZM37 51.8001V71.5333H71.5333V51.8001L61.1735 65.6133C59.543 67.7872 56.9841 69.0667 54.2667 69.0667C51.5492 69.0667 48.9904 67.7872 47.3599 65.6133L37 51.8001ZM54.3322 39.3789C52.2135 43.468 48.0395 46.0192 43.5 45.9998C38.5018 45.9945 34.0043 42.9075 32.1234 38.191L31.7762 38.3679C31.3958 38.5617 30.9439 38.541 30.582 38.3133C30.2202 38.0855 30 37.6831 30 37.2499V29.75C30 29.2765 30.2626 28.8437 30.6784 28.632L32.5534 27.6771C32.5753 27.666 32.5972 27.6554 32.6192 27.6449C32.6353 27.6372 32.6514 27.6295 32.6675 27.6215C34.9094 23.3376 39.3833 20.7628 44.143 21.0173C48.9026 21.2717 53.0874 24.3094 54.8766 28.8088L55.2238 28.632C55.6042 28.4382 56.0561 28.4588 56.418 28.6866C56.7798 28.9144 57 29.3167 57 29.75V37.2499C57 37.7233 56.7374 38.1561 56.3216 38.3679L54.4466 39.3228C54.4086 39.3421 54.3703 39.3601 54.3322 39.3789ZM34.3405 37.0998C35.8047 40.9537 39.4428 43.4957 43.5 43.4998C46.1548 43.5106 48.6992 42.4186 50.5458 40.4759C50.1795 40.5132 49.8125 40.5329 49.4459 40.5329C47.0344 40.5303 44.689 39.729 42.7637 38.2499C40.3474 36.3906 37.1522 35.9544 34.3405 37.0998ZM52.6595 29.9C51.1953 26.0462 47.5572 23.5042 43.5 23.5C40.8448 23.4892 38.3002 24.5815 36.4535 26.5247C39.2302 26.2436 42.009 27.0381 44.2363 28.7499C46.6526 30.6091 49.8477 31.0454 52.6595 29.9ZM33.6513 29.9131L32.4545 30.5225V35.2274L32.5534 35.177C36.3302 33.2375 40.8611 33.6536 44.2363 36.2498C46.8688 38.2752 50.403 38.5998 53.3487 37.0868L54.5455 36.4773V31.7725L54.4466 31.8229C50.6698 33.7625 46.1389 33.3465 42.7637 30.75C40.1312 28.7246 36.597 28.4001 33.6513 29.9131Z" fill="url(#paint0_linear_4042_2419)"/>
<defs>
<linearGradient id="paint0_linear_4042_2419" x1="33.6297" y1="90.2268" x2="94.6328" y2="30.5016" gradientUnits="userSpaceOnUse">
<stop stop-color="#14317F"/>
<stop offset="1" stop-color="#F319F9"/>
</linearGradient>
</defs>
</svg>
