<svg width="62" height="62" viewBox="0 0 62 62" fill="none" xmlns="http://www.w3.org/2000/svg">
<g id="graphic-design">
<path id="Shape" fill-rule="evenodd" clip-rule="evenodd" d="M33.0667 12.4C30.7839 12.4 28.9333 14.2506 28.9333 16.5334C28.9333 18.8161 30.7839 20.6667 33.0667 20.6667C35.3495 20.6667 37.2 18.8161 37.2 16.5334C37.2 14.2506 35.3495 12.4 33.0667 12.4ZM33.0667 18.6C31.9253 18.6 31 17.6747 31 16.5334C31 15.392 31.9253 14.4667 33.0667 14.4667C34.2081 14.4667 35.1333 15.392 35.1333 16.5334C35.1333 17.6747 34.2081 18.6 33.0667 18.6Z" fill="url(#paint0_linear_4042_2619)"/>
<path id="Shape_2" fill-rule="evenodd" clip-rule="evenodd" d="M42.3667 17.5667C40.6546 17.5667 39.2667 18.9546 39.2667 20.6667C39.2667 22.3787 40.6546 23.7667 42.3667 23.7667C44.0787 23.7667 45.4667 22.3787 45.4667 20.6667C45.4667 18.9546 44.0787 17.5667 42.3667 17.5667ZM42.3667 21.7C41.796 21.7 41.3333 21.2373 41.3333 20.6667C41.3333 20.096 41.796 19.6333 42.3667 19.6333C42.9374 19.6333 43.4 20.096 43.4 20.6667C43.4 21.2373 42.9374 21.7 42.3667 21.7Z" fill="url(#paint1_linear_4042_2619)"/>
<path id="Shape_3" fill-rule="evenodd" clip-rule="evenodd" d="M42.3667 28.9333C42.3667 30.6454 43.7546 32.0333 45.4667 32.0333C47.1788 32.0333 48.5667 30.6454 48.5667 28.9333C48.5667 27.2212 47.1788 25.8333 45.4667 25.8333C43.7546 25.8333 42.3667 27.2212 42.3667 28.9333ZM45.4667 27.9C46.0374 27.9 46.5 28.3626 46.5 28.9333C46.5 29.504 46.0374 29.9666 45.4667 29.9666C44.896 29.9666 44.4333 29.504 44.4333 28.9333C44.4333 28.3626 44.896 27.9 45.4667 27.9Z" fill="url(#paint2_linear_4042_2619)"/>
<path id="Shape_4" fill-rule="evenodd" clip-rule="evenodd" d="M58.9 0H3.1C1.39004 0.00510694 0.00510694 1.39004 0 3.1V52.7C0.00510694 54.41 1.39004 55.7949 3.1 55.8H22.8677L19.809 60.3983C19.5916 60.7109 19.5715 61.12 19.7573 61.4523C19.9335 61.7912 20.2848 62.0027 20.6667 62H41.3333C41.7152 62.0027 42.0665 61.7912 42.2427 61.4523C42.4285 61.12 42.4084 60.7109 42.191 60.3983L39.1323 55.8H58.9C60.61 55.7949 61.9949 54.41 62 52.7V3.1C61.9949 1.39004 60.61 0.00510694 58.9 0ZM39.401 59.9333H22.599L25.358 55.8H36.642L39.401 59.9333ZM59.9333 52.7C59.9333 53.2707 59.4707 53.7333 58.9 53.7333H3.1C2.52931 53.7333 2.06667 53.2707 2.06667 52.7V49.6H59.9333V52.7ZM59.9333 47.5333H2.06667V3.1C2.06667 2.52931 2.52931 2.06667 3.1 2.06667H58.9C59.4707 2.06667 59.9333 2.52931 59.9333 3.1V47.5333Z" fill="url(#paint3_linear_4042_2619)"/>
<path id="Shape_5" fill-rule="evenodd" clip-rule="evenodd" d="M35.4743 36.6833L24.1076 16.9983C23.9708 16.7588 23.7438 16.5839 23.4773 16.5126C23.2121 16.4429 22.9301 16.48 22.692 16.616L19.1166 18.6826C18.6233 18.9704 18.4529 19.6013 18.7343 20.0983L30.101 39.7833C30.2425 40.0188 30.4676 40.1922 30.7313 40.269C30.8194 40.2895 30.9095 40.2999 31 40.3C31.1805 40.2971 31.3576 40.251 31.5166 40.1656L35.092 38.099C35.3311 37.9626 35.506 37.7365 35.5778 37.4707C35.6495 37.2049 35.6123 36.9215 35.4743 36.6833ZM31.3823 37.851L21.049 19.9536L22.8366 18.9203L33.17 36.8176L31.3823 37.851Z" fill="url(#paint4_linear_4042_2619)"/>
<path id="Shape_6" fill-rule="evenodd" clip-rule="evenodd" d="M21.9067 11.1083L20.925 9.41366C20.4568 8.60428 19.7784 7.93659 18.9617 7.48132L14.694 5.11499C14.3751 4.93755 13.9863 4.94147 13.671 5.12532C13.3584 5.309 13.163 5.64121 13.1544 6.00366L13.0717 10.881C13.0593 11.8157 13.2984 12.7365 13.764 13.547L14.7457 15.2417C15.6034 16.7233 17.4982 17.2317 18.9824 16.3783L20.77 15.345C21.4829 14.9342 22.0033 14.2569 22.2165 13.4623C22.4297 12.6676 22.3182 11.8208 21.9067 11.1083ZM20.212 12.927C20.146 13.1931 19.9744 13.4207 19.7367 13.5573L17.949 14.5907C17.452 14.872 16.8211 14.7017 16.5334 14.2083L15.5517 12.5137C15.2708 12.0273 15.1279 11.4735 15.1384 10.912L15.19 7.76032L17.9594 9.28966C18.4498 9.56141 18.857 9.96148 19.1374 10.447L20.1087 12.1417C20.2503 12.3779 20.2877 12.6622 20.212 12.927Z" fill="url(#paint5_linear_4042_2619)"/>
<path id="Path" fill-rule="evenodd" clip-rule="evenodd" d="M27.2108 10.3002C34.7555 7.6357 43.1475 10.4063 47.6228 17.0391C52.098 23.672 51.5255 32.491 46.2303 38.4896C45.4309 35.8836 43.0258 34.1034 40.3 34.1C39.7293 34.1 39.2667 34.5626 39.2667 35.1333C39.2667 35.704 39.7293 36.1666 40.3 36.1666C42.5828 36.1666 44.4334 38.0172 44.4334 40.3C44.434 40.3982 44.4271 40.4963 44.4127 40.5934C44.3493 41.0231 44.5613 41.4466 44.9434 41.6532C45.3254 41.8599 45.7959 41.8055 46.1208 41.5172C53.1235 35.275 54.7319 24.9509 49.9599 16.8742C45.1879 8.79762 35.3689 5.22525 26.5226 8.34724C25.9841 8.53728 25.7017 9.12784 25.8917 9.66629C26.0818 10.2047 26.6723 10.4872 27.2108 10.2971V10.3002Z" fill="url(#paint6_linear_4042_2619)"/>
<path id="Path_2" fill-rule="evenodd" clip-rule="evenodd" d="M25.0676 37.2352C21.8902 36.3842 19.181 34.3055 17.5364 31.4567C15.8919 28.6079 15.4467 25.2223 16.2988 22.0452C16.4059 21.6849 16.309 21.2949 16.0457 21.0267C15.7825 20.7585 15.3943 20.6544 15.0322 20.7548C14.67 20.8553 14.3909 21.1444 14.3034 21.5099C12.2449 29.2264 16.8214 37.153 24.5334 39.2285C24.6202 39.2526 24.7099 39.2655 24.8 39.2667C25.3185 39.2664 25.7565 38.8819 25.824 38.3678C25.8914 37.8537 25.5675 37.3692 25.0666 37.2352H25.0676Z" fill="url(#paint7_linear_4042_2619)"/>
</g>
<defs>
<linearGradient id="paint0_linear_4042_2619" x1="32.6902" y1="22.4794" x2="39.5049" y2="15.8074" gradientUnits="userSpaceOnUse">
<stop stop-color="#14317F"/>
<stop offset="1" stop-color="#F319F9"/>
</linearGradient>
<linearGradient id="paint1_linear_4042_2619" x1="42.0843" y1="25.1262" x2="47.1954" y2="20.1222" gradientUnits="userSpaceOnUse">
<stop stop-color="#14317F"/>
<stop offset="1" stop-color="#F319F9"/>
</linearGradient>
<linearGradient id="paint2_linear_4042_2619" x1="45.1843" y1="33.3929" x2="50.2954" y2="28.3888" gradientUnits="userSpaceOnUse">
<stop stop-color="#14317F"/>
<stop offset="1" stop-color="#F319F9"/>
</linearGradient>
<linearGradient id="paint3_linear_4042_2619" x1="28.1762" y1="75.5955" x2="79.287" y2="25.5554" gradientUnits="userSpaceOnUse">
<stop stop-color="#14317F"/>
<stop offset="1" stop-color="#F319F9"/>
</linearGradient>
<linearGradient id="paint4_linear_4042_2619" x1="26.3312" y1="45.5236" x2="44.7806" y2="32.6221" gradientUnits="userSpaceOnUse">
<stop stop-color="#14317F"/>
<stop offset="1" stop-color="#F319F9"/>
</linearGradient>
<linearGradient id="paint5_linear_4042_2619" x1="17.2755" y1="19.3814" x2="26.6789" y2="12.1683" gradientUnits="userSpaceOnUse">
<stop stop-color="#14317F"/>
<stop offset="1" stop-color="#F319F9"/>
</linearGradient>
<linearGradient id="paint6_linear_4042_2619" x1="38.0383" y1="49.3542" x2="65.498" y2="28.4563" gradientUnits="userSpaceOnUse">
<stop stop-color="#14317F"/>
<stop offset="1" stop-color="#F319F9"/>
</linearGradient>
<linearGradient id="paint7_linear_4042_2619" x1="19.2741" y1="43.3342" x2="33.1128" y2="34.553" gradientUnits="userSpaceOnUse">
<stop stop-color="#14317F"/>
<stop offset="1" stop-color="#F319F9"/>
</linearGradient>
</defs>
</svg>
