<svg width="79" height="74" viewBox="0 0 79 74" fill="none" xmlns="http://www.w3.org/2000/svg">
<path fill-rule="evenodd" clip-rule="evenodd" d="M21.0001 47.7318C21.9563 47.1802 22.2837 45.956 21.7321 44.9997C21.1798 44.0443 19.9564 43.7162 19.0002 44.2677C18.044 44.8201 17.7159 46.0443 18.2682 46.9997C18.8198 47.956 20.0439 48.2841 21.0001 47.7318Z" fill="url(#paint0_linear_4042_2439)"/>
<path fill-rule="evenodd" clip-rule="evenodd" d="M14.778 57.7569L22.5315 70.9699C24.2046 73.8241 27.9683 74.8809 30.9447 73.1881C33.8899 71.5136 34.902 67.8114 33.1982 64.9116L28.5793 57.0398L32.5794 54.7677C33.3155 54.3488 33.5681 53.4229 33.1429 52.6986L31.1408 49.287C31.3795 49.2414 32.9492 48.9385 60.6307 43.5961C64.0528 43.4133 66.103 39.7313 64.3745 36.7876L59.2577 28.0686L62.5276 23.196C62.8487 22.7168 62.868 22.1008 62.5763 21.6038L59.497 16.3567C59.2053 15.8597 58.6514 15.5686 58.0711 15.6023L52.1477 15.952L46.4673 6.27207C45.6446 4.86978 44.1705 4.02071 42.525 4.00059C42.5052 4 42.4859 4 42.4661 4C40.8759 4 39.4325 4.77866 38.5773 6.09516L18.4647 31.3021L5.38928 38.7289C0.246556 41.6489 -1.53484 48.1397 1.44458 53.2128C4.1666 57.8516 9.90532 59.6764 14.778 57.7569ZM30.5321 66.4269C31.3826 67.8742 30.8792 69.7261 29.4039 70.5646C27.9238 71.4065 26.039 70.8894 25.1982 69.4557L17.5 56.3363L22.8334 53.3069C31.7428 68.4907 30.389 66.1837 30.5321 66.4269ZM27.0397 54.4157L25.5001 51.7922L28.1668 50.2775L29.7064 52.901L27.0397 54.4157ZM57.3061 18.6821L59.4339 22.3079L57.5364 25.135L53.869 18.885L57.3061 18.6821ZM41.1526 7.75602C41.5658 7.09096 42.2213 7.02233 42.4871 7.02943C42.7499 7.03239 43.4049 7.11285 43.8 7.78619L61.7078 38.3023C62.2912 39.2958 61.5821 40.5448 60.4124 40.5732C60.2025 40.578 60.1057 40.6152 59.568 40.7141L40.6251 8.43468C41.0227 7.93175 41.0738 7.88323 41.1526 7.75602ZM38.5761 11.0026L56.3739 41.3306L29.5133 46.5137L21.3461 32.5967L38.5761 11.0026ZM4.11127 51.6981C3.43527 50.5473 3.07803 49.2408 3.07803 47.919C3.07803 45.2174 4.55391 42.7015 6.92891 41.3525L18.929 34.5363L26.6271 47.6539L14.6271 54.4707C10.9506 56.5582 6.23367 55.3145 4.11127 51.6981Z" fill="url(#paint1_linear_4042_2439)"/>
<path fill-rule="evenodd" clip-rule="evenodd" d="M16.8133 47.9184C16.4288 47.0404 15.5771 46.7392 14.9114 47.2463L12.5 49.0825C11.8354 49.5889 10.9821 49.287 10.5982 48.4104C10.2137 47.5325 9.36199 47.2312 8.69632 47.7383C8.03065 48.2455 7.80223 49.3687 8.18673 50.2467C9.33262 52.8648 11.8887 53.788 13.8923 52.263L16.3037 50.4267C16.9694 49.9196 17.1978 48.7971 16.8133 47.9184Z" fill="url(#paint2_linear_4042_2439)"/>
<path fill-rule="evenodd" clip-rule="evenodd" d="M76.841 7.17359L68.7466 11.4283C68.0458 11.7971 67.7933 12.6327 68.1837 13.2947C68.5729 13.9561 69.457 14.1957 70.1595 13.8264L78.2533 9.57165C78.9547 9.20288 79.2066 8.36726 78.8162 7.7053C78.4264 7.04281 77.5418 6.80483 76.841 7.17359Z" fill="url(#paint3_linear_4042_2439)"/>
<path fill-rule="evenodd" clip-rule="evenodd" d="M75.9882 21.7616L70.7178 20.0566C69.99 19.8211 69.2418 20.3422 69.0468 21.2211C68.8518 22.1 69.2839 23.0027 70.0118 23.2382L75.2827 24.9432C76.0148 25.1806 76.7592 24.6511 76.9532 23.7786C77.1482 22.8998 76.7161 21.9964 75.9882 21.7616Z" fill="url(#paint4_linear_4042_2439)"/>
<path fill-rule="evenodd" clip-rule="evenodd" d="M60.7629 1.01131L59.0566 6.28228C58.8211 7.01015 59.3421 7.75774 60.2207 7.9533C61.0987 8.14779 62.0017 7.71724 62.2377 6.98884L63.9434 1.71787C64.1789 0.989997 63.6579 0.241874 62.7793 0.0468505C61.9013 -0.148173 60.9983 0.283436 60.7629 1.01131Z" fill="url(#paint5_linear_4042_2439)"/>
<defs>
<linearGradient id="paint0_linear_4042_2439" x1="19.8178" y1="48.8771" x2="23.1153" y2="45.6487" gradientUnits="userSpaceOnUse">
<stop stop-color="#14317F"/>
<stop offset="1" stop-color="#F319F9"/>
</linearGradient>
<linearGradient id="paint1_linear_4042_2439" x1="29.5396" y1="89.3496" x2="86.9972" y2="37.1138" gradientUnits="userSpaceOnUse">
<stop stop-color="#14317F"/>
<stop offset="1" stop-color="#F319F9"/>
</linearGradient>
<linearGradient id="paint2_linear_4042_2439" x1="12.0901" y1="54.3157" x2="16.6933" y2="47.5555" gradientUnits="userSpaceOnUse">
<stop stop-color="#14317F"/>
<stop offset="1" stop-color="#F319F9"/>
</linearGradient>
<linearGradient id="paint3_linear_4042_2439" x1="72.999" y1="15.535" x2="78.2737" y2="7.41972" gradientUnits="userSpaceOnUse">
<stop stop-color="#14317F"/>
<stop offset="1" stop-color="#F319F9"/>
</linearGradient>
<linearGradient id="paint4_linear_4042_2439" x1="72.6356" y1="26.0964" x2="76.3753" y2="20.2382" gradientUnits="userSpaceOnUse">
<stop stop-color="#14317F"/>
<stop offset="1" stop-color="#F319F9"/>
</linearGradient>
<linearGradient id="paint5_linear_4042_2439" x1="61.2723" y1="9.75424" x2="67.1458" y2="6.16018" gradientUnits="userSpaceOnUse">
<stop stop-color="#14317F"/>
<stop offset="1" stop-color="#F319F9"/>
</linearGradient>
</defs>
</svg>
