<svg width="316" height="103" viewBox="0 0 316 103" fill="none" xmlns="http://www.w3.org/2000/svg">
<path fill-rule="evenodd" clip-rule="evenodd" d="M43.9328 14.7934C59.9914 14.7934 73.0244 27.8265 73.0244 43.8851C73.0244 59.9438 59.9914 72.9768 43.9328 72.9768C27.8741 72.9768 14.8411 59.9438 14.8411 43.8851C14.8411 27.8265 27.8741 14.7934 43.9328 14.7934Z" fill="white"/>
<path fill-rule="evenodd" clip-rule="evenodd" d="M5.6095 40.9531C7.3976 24.697 16.9787 11.1013 36.1751 6.397L36.239 0.664692C36.277 -0.0101357 36.6339 -0.129719 37.2021 0.12056L51.6766 10.9901L37.3022 21.8077C36.6905 22.184 36.3011 22.0311 36.0249 21.6075V16.8995C26.0202 20.1345 18.5137 27.0886 15.6577 40.9578L10.857 34.4042L5.6095 40.9531Z" fill="white"/>
<path fill-rule="evenodd" clip-rule="evenodd" d="M46.9139 5.62132C63.17 7.4085 76.7657 16.9896 81.47 36.1869L87.2023 36.2499C87.8762 36.2888 87.9958 36.6457 87.7464 37.213L76.8769 51.6875L66.0584 37.3141C65.682 36.7023 65.8359 36.313 66.2595 36.0358H70.9676C67.7325 26.032 60.7784 18.5246 46.9083 15.6686L53.4619 10.8679L46.9139 5.62132Z" fill="white"/>
<path fill-rule="evenodd" clip-rule="evenodd" d="M82.256 46.816C80.4688 63.0712 70.8878 76.6669 51.6914 81.3712L51.6274 87.1036C51.5885 87.7793 51.2326 87.898 50.6643 87.6486L36.1898 76.7791L50.5633 65.9605C51.1751 65.5851 51.5644 65.7371 51.8416 66.1608V70.8688C61.8453 67.6337 69.3528 60.6797 72.2087 46.8105L77.0094 53.3641L82.256 46.816Z" fill="white"/>
<path fill-rule="evenodd" clip-rule="evenodd" d="M40.9526 82.1479C24.6965 80.3598 11.1008 70.7788 6.39646 51.5815L0.664149 51.5184C-0.00975005 51.4804 -0.129326 51.1226 0.120026 50.5553L10.9896 36.0809L21.8072 50.4552C22.1835 51.067 22.0306 51.4563 21.6069 51.7326H16.8989C20.134 61.7372 27.0881 69.2438 40.9572 72.1006L34.4036 76.9004L40.9526 82.1479Z" fill="white"/>
<path d="M100.735 61.4678V34.8881C100.735 30.601 102.345 26.9867 105.568 24.0483C108.79 21.1089 112.602 19.6397 117.002 19.6397C121.375 19.6397 125.108 21.1868 128.203 24.2819C131.298 27.377 132.845 31.1117 132.845 35.4842C132.845 38.5506 132.263 41.1701 131.098 43.3429C129.934 45.5148 128.074 47.4104 125.519 49.0289C122.709 50.8179 119.869 51.7115 117.001 51.7125C114.588 51.7115 112.118 51.0729 109.591 49.7955V41.5335C110.386 42.5263 111.443 43.3068 112.764 43.875C114.084 44.4423 115.469 44.7269 116.917 44.7269C119.415 44.7269 121.488 43.9881 123.135 42.5115C125.008 40.8364 125.945 38.4644 125.945 35.398C125.945 32.9564 125.051 30.8688 123.263 29.1364C121.474 27.4039 119.33 26.5381 116.833 26.5381C114.277 26.5381 112.104 27.4187 110.316 29.179C108.527 30.9393 107.632 33.0982 107.632 35.6538V61.4678H100.735ZM149.411 61.4678V34.8881C149.411 30.601 151.022 26.9867 154.245 24.0483C157.467 21.1089 161.278 19.6397 165.679 19.6397C170.051 19.6397 173.785 21.1868 176.879 24.2819C179.974 27.377 181.521 31.1117 181.521 35.4842C181.521 38.5506 180.939 41.1701 179.774 43.3429C178.611 45.5148 176.75 47.4104 174.196 49.0289C171.385 50.8179 168.546 51.7115 165.678 51.7125C163.265 51.7115 160.795 51.0729 158.268 49.7955V41.5335C159.063 42.5263 160.12 43.3068 161.441 43.875C162.761 44.4423 164.145 44.7269 165.593 44.7269C168.092 44.7269 170.164 43.9881 171.811 42.5115C173.685 40.8364 174.622 38.4644 174.622 35.398C174.622 32.9564 173.727 30.8688 171.939 29.1364C170.15 27.4039 168.006 26.5381 165.509 26.5381C162.953 26.5381 160.781 27.4187 158.993 29.179C157.204 30.9393 156.309 33.0982 156.309 35.6538V61.4678H149.411ZM189.962 47.7061C186.613 44.4711 184.939 40.5398 184.939 35.9124C184.939 31.2285 186.564 27.2333 189.815 23.9269C193.066 20.6195 197.018 18.9658 201.674 18.9658C206.359 18.9658 210.455 20.7047 213.96 24.1818C217.467 27.6579 219.22 31.7096 219.22 36.337C219.22 36.8468 219.22 37.3437 219.22 37.8275C219.134 38.2521 219.077 38.5645 219.049 38.7628H195.026C194.515 38.7628 194.188 38.5506 194.046 38.1242C193.905 37.6987 193.833 37.1156 193.833 36.3768C193.832 36.0654 193.832 35.8383 193.833 35.6955C193.832 35.3266 193.832 35.042 193.833 34.8436C193.833 34.3042 193.89 33.9 194.004 33.6293C194.117 33.3596 194.388 33.2252 194.814 33.2252H211.686C211.06 30.955 209.875 29.1818 208.129 27.9044C206.381 26.628 204.301 25.9893 201.888 25.9893C199.218 25.9893 196.897 26.9469 194.922 28.8629C192.949 30.7789 191.963 33.0416 191.963 35.6538C191.963 36.1071 191.977 36.4473 192.005 36.6753C192.318 39.4849 193.496 41.6994 195.54 43.3161C197.357 44.764 199.514 45.487 202.012 45.487C203.431 45.487 204.765 45.2386 206.014 44.7426C207.263 44.2449 208.328 43.4996 209.208 42.5059L214.061 47.5328C212.33 49.294 210.514 50.5723 208.612 51.3676C206.71 52.163 204.51 52.5606 202.012 52.5606C197.328 52.5606 193.311 50.9431 189.962 47.7061ZM286.742 47.7061C283.393 44.4711 281.719 40.5398 281.719 35.9124C281.719 31.2285 283.344 27.2333 286.595 23.9269C289.846 20.6195 293.798 18.9658 298.454 18.9658C303.139 18.9658 307.235 20.7047 310.74 24.1818C314.247 27.6579 316 31.7096 316 36.337C316 36.8468 316 37.3437 316 37.8275C315.914 38.2521 315.857 38.5645 315.829 38.7628H291.806C291.296 38.7628 290.968 38.5506 290.827 38.1242C290.685 37.6987 290.613 37.1156 290.613 36.3768C290.612 36.0654 290.612 35.8383 290.613 35.6955C290.612 35.3266 290.612 35.042 290.613 34.8436C290.613 34.3042 290.67 33.9 290.784 33.6293C290.897 33.3596 291.168 33.2252 291.594 33.2252H308.466C307.84 30.955 306.655 29.1818 304.909 27.9044C303.162 26.628 301.082 25.9893 298.668 25.9893C295.998 25.9893 293.677 26.9469 291.703 28.8629C289.729 30.7789 288.743 33.0416 288.743 35.6538C288.743 36.1071 288.757 36.4473 288.785 36.6753C289.098 39.4849 290.276 41.6994 292.32 43.3161C294.137 44.764 296.294 45.487 298.792 45.487C300.211 45.487 301.545 45.2386 302.795 44.7426C304.043 44.2449 305.108 43.4996 305.988 42.5059L310.841 47.5328C309.11 49.294 307.294 50.5723 305.392 51.3676C303.49 52.163 301.29 52.5606 298.792 52.5606C294.108 52.5606 290.091 50.9431 286.742 47.7061ZM247.701 52.3864V33.4606C247.701 29.3403 249.185 25.8234 252.15 22.9109C255.117 19.9984 258.687 18.5421 262.86 18.5421C266.947 18.5421 270.439 20.0039 273.335 22.9267C276.23 25.8503 277.678 29.369 277.678 33.4847V52.3864H269.968V33.2289C269.968 31.298 269.223 29.6592 267.732 28.3114C266.242 26.9636 264.489 26.2897 262.473 26.2887C260.542 26.2897 258.873 26.9497 257.468 28.2715C256.063 29.5934 255.36 31.2063 255.36 33.1112V52.3864H247.701ZM137.111 52.2612V20.7872H144.347V52.2612H137.111ZM223.349 52.2612V9.68505H230.585V52.2612H223.349ZM235.189 52.2612V20.7872H242.424V52.2612H235.189ZM137.623 17.3844C136.858 16.5038 136.475 15.4674 136.475 14.2753C136.475 13.1111 136.851 12.1174 137.602 11.2942C138.354 10.4702 139.425 10.0586 140.815 10.0586C142.063 10.0586 143.07 10.5128 143.836 11.4212C144.517 12.2453 144.858 13.239 144.857 14.4033C144.858 15.5388 144.496 16.539 143.773 17.4057C143.049 18.2715 142.063 18.7044 140.815 18.7044C139.453 18.7044 138.39 18.2641 137.623 17.3844ZM235.701 17.3844C234.936 16.5038 234.553 15.4674 234.553 14.2753C234.553 13.1111 234.929 12.1174 235.68 11.2942C236.432 10.4702 237.503 10.0586 238.893 10.0586C240.141 10.0586 241.148 10.5128 241.914 11.4212C242.595 12.2453 242.936 13.239 242.935 14.4033C242.936 15.5388 242.574 16.539 241.851 17.4057C241.127 18.2715 240.141 18.7044 238.893 18.7044C237.531 18.7044 236.468 18.2641 235.701 17.3844Z" fill="white"/>
<path fill-rule="evenodd" clip-rule="evenodd" d="M184.449 71.9616L219.125 74.2456L216.075 68.0952L236.637 64.8787L209.883 62.8523L211.509 68.2102L184.449 71.9616Z" fill="white"/>
<path d="M196.863 85.4388C194.665 84.0623 192.926 82.1213 191.646 79.6185C191.114 78.5803 190.693 77.4772 190.382 76.3101L199.673 76.9229H199.666C200.36 77.9166 201.203 78.711 202.196 79.3024C203.475 80.068 204.843 80.4499 206.295 80.4499C207.787 80.4499 209.182 80.0773 210.481 79.332C211.212 78.913 211.86 78.3893 212.422 77.7636L214.133 77.8758L213.409 76.4167C213.466 76.3194 213.523 76.2212 213.578 76.1201C214.343 74.726 214.723 73.0546 214.723 71.1043C214.723 70.7373 214.709 70.3785 214.682 70.0309L214.678 70.0318L214.723 70.0244V82.3428C213.692 83.8333 212.268 85.0653 210.453 86.0414C208.638 87.0165 206.544 87.5032 204.174 87.5032C201.498 87.5032 199.061 86.8144 196.863 85.4388ZM295.329 86.0701C293.551 85.1135 292.109 83.9103 291 82.4568V59.8066C292.032 58.3549 293.457 57.1415 295.271 56.1673C297.087 55.1912 299.161 54.7055 301.493 54.7055C304.208 54.7055 306.663 55.3738 308.861 56.7124C311.059 58.049 312.799 59.9512 314.077 62.4169C315.36 64.8835 316 67.7404 316 70.9894C316 74.2393 315.36 77.1138 314.077 79.6185C312.799 82.1213 311.059 84.0623 308.861 85.4388C306.663 86.8144 304.208 87.5032 301.493 87.5032C299.161 87.5032 297.107 87.0249 295.329 86.0701ZM227.068 86.9869V68.0926L234.629 66.9098L227.068 66.337L227.068 55.2227H235.096V59.0631C236.129 57.7237 237.457 56.6734 239.082 55.9087C240.706 55.1449 242.494 54.763 244.443 54.763C246.928 54.763 249.145 55.2876 251.093 56.3407C253.043 57.39 254.553 58.8907 255.623 60.8392C256.657 59.0066 258.157 57.5336 260.127 56.4259C262.095 55.3173 264.226 54.763 266.518 54.763C270.418 54.763 273.562 55.9569 275.95 58.3447C278.339 60.7354 279.533 64.0696 279.533 68.3522V86.9869H271.507V69.4414C271.507 66.9562 270.875 65.0541 269.615 63.7369C268.353 62.4169 266.633 61.7587 264.453 61.7587C262.273 61.7587 260.545 62.4169 259.265 63.7369C257.983 65.0541 257.344 66.9562 257.344 69.4414V86.9869H249.316V69.4414C249.316 66.9562 248.686 65.0541 247.425 63.7369C246.163 62.4169 244.443 61.7587 242.265 61.7587C240.045 61.7587 238.299 62.4169 237.017 63.7369C235.736 65.0541 235.096 66.9562 235.096 69.4414V86.9869H227.068ZM303.528 79.3024C304.808 78.5385 305.842 77.4512 306.624 76.0348C307.409 74.6203 307.8 72.9397 307.8 70.9894C307.8 69.078 307.409 67.4271 306.624 66.0292C305.842 64.6342 304.808 63.5719 303.528 62.847C302.249 62.1212 300.863 61.7587 299.372 61.7587C297.919 61.7587 296.551 62.1304 295.271 62.8757C293.991 63.6219 292.959 64.7 292.176 66.1145C291.392 67.5309 291 69.1929 291 71.1043C291 73.0148 291.392 74.6778 292.176 76.0932C292.959 77.5059 293.991 78.5867 295.271 79.332C296.551 80.0773 297.919 80.4499 299.372 80.4499C300.863 80.4499 302.249 80.068 303.528 79.3024ZM189.724 70.9894C189.724 67.7793 190.365 64.9299 191.646 62.4475C192.926 59.9614 194.665 58.049 196.863 56.7124C199.061 55.3738 201.516 54.7055 204.23 54.7055C206.601 54.7055 208.675 55.1838 210.453 56.1376C212.23 57.0933 213.653 58.2993 214.723 59.7509L214.722 65.4017L213.078 65.2765C212.382 64.2699 211.515 63.4708 210.481 62.8757C209.182 62.1304 207.787 61.7587 206.295 61.7587C204.805 61.7587 203.428 62.1212 202.167 62.847C200.905 63.5719 199.884 64.6342 199.099 66.0292C198.317 67.4271 197.924 69.078 197.924 70.9894C197.924 71.2712 197.932 71.5474 197.949 71.8181L189.812 72.9453L189.805 72.9462C189.751 72.3103 189.724 71.6577 189.724 70.9894Z" fill="white"/>
<path fill-rule="evenodd" clip-rule="evenodd" d="M283.094 102.122L283.095 54.6268H291.259V102.122H283.094Z" fill="white"/>
<path fill-rule="evenodd" clip-rule="evenodd" d="M214.729 86.7024V70.0236L222.884 68.7481V86.7024H214.729ZM222.884 66.0201L214.728 65.4027L214.729 54.6268H222.884V66.0201Z" fill="white"/>
<path fill-rule="evenodd" clip-rule="evenodd" d="M178.664 74.3766L212.448 76.5012L209.478 70.7847L229.509 67.7962L203.444 65.9126L205.028 70.8931L178.664 74.3766Z" fill="#261B97"/>
<path fill-rule="evenodd" clip-rule="evenodd" d="M47.153 40.7567H62.2513L33.1318 64.5796L47.153 40.7567Z" fill="#1B36B6"/>
<path fill-rule="evenodd" clip-rule="evenodd" d="M41.1472 45.6111H26.0489L55.1684 21.7882L41.1472 45.6111Z" fill="#1B36B6"/>
</svg>
