<svg width="325" height="80" viewBox="0 0 325 80" fill="none" xmlns="http://www.w3.org/2000/svg">
<path d="M227.196 67.706C225.69 67.706 224.254 67.6589 222.889 67.5648C221.571 67.4706 220.324 67.3294 219.148 67.1412L210.253 63.1172L213.782 51.8925L227.902 55.7752C230.631 55.7752 232.608 55.3281 233.832 54.4339C235.055 53.4926 235.667 52.316 235.667 50.9041C235.667 49.6334 235.22 48.7392 234.326 48.2215C233.432 47.7038 231.926 47.4449 229.808 47.4449H221.054V36.079H228.961C230.561 36.079 231.831 35.7495 232.773 35.0906C233.761 34.4318 234.255 33.514 234.255 32.3374C234.255 30.8314 233.808 29.796 232.914 29.2312C232.02 28.6194 230.749 28.3134 229.102 28.3134C226.749 28.3134 224.489 28.5488 222.325 29.0194C220.16 29.49 218.23 30.0548 216.536 30.7137C214.841 31.3255 213.453 31.8668 212.37 32.3374V20.3361C213.312 19.8655 214.653 19.3242 216.394 18.7124C218.136 18.1006 220.207 17.5593 222.607 17.0887C225.054 16.6181 227.713 16.3827 230.584 16.3827C235.902 16.3827 239.926 17.5593 242.656 19.9125C245.433 22.2187 246.821 25.4896 246.821 29.7254C246.821 32.1727 246.304 34.1964 245.268 35.7966C244.28 37.3497 243.197 38.5969 242.021 39.5382C243.997 40.4324 245.645 41.7737 246.962 43.5622C248.327 45.3035 249.01 47.7273 249.01 50.8335C249.01 62.0818 241.738 67.706 227.196 67.706ZM265.381 67.706C260.816 67.706 256.816 66.8588 253.38 65.1645C249.991 63.4702 247.356 60.8346 245.473 57.2578C243.591 53.6809 242.65 49.0922 242.65 43.4916C242.65 38.2675 243.308 33.914 244.626 30.4313C245.991 26.9015 247.803 24.1247 250.062 22.101C252.368 20.0302 254.933 18.5477 257.757 17.6535C260.628 16.7592 263.569 16.3121 266.582 16.3121C268.982 16.3121 271.311 16.5004 273.571 16.8769C275.877 17.2534 277.547 17.677 278.583 18.1476L285.007 23.8659L278.653 34.1023L267.287 28.2428C264.181 28.2428 261.569 29.1371 259.451 30.9255C257.381 32.6669 256.345 35.1612 256.345 38.4087L266.793 36.2908C270.135 36.2908 273.218 36.7614 276.041 37.7027C278.912 38.5969 281.195 40.1736 282.889 42.4326C284.631 44.6446 285.501 47.7273 285.501 51.6807C285.501 56.5283 283.807 60.411 280.418 63.329C277.077 66.247 272.064 67.706 265.381 67.706ZM265.311 55.5635C267.476 55.5635 269.147 55.187 270.323 54.4339C271.547 53.6338 272.159 52.5749 272.159 51.2571C272.159 49.8923 271.617 48.6451 270.535 47.5155C269.452 46.386 267.758 45.8212 265.452 45.8212C263.428 45.8212 261.71 46.2683 260.298 47.1625C258.887 48.0097 257.922 48.7392 257.404 49.351C257.781 51.0924 258.604 52.5749 259.875 53.7986C261.193 54.9752 263.005 55.5635 265.311 55.5635ZM300.152 67.706C296.151 67.706 292.551 66.8823 289.35 65.2351C286.197 63.5879 283.703 60.9052 281.867 57.1872C280.032 53.4221 279.114 48.3627 279.114 42.009C279.114 35.7025 280.032 30.6902 281.867 26.9721C283.703 23.207 286.197 20.5008 289.35 18.8536C292.551 17.1593 296.151 16.3121 300.152 16.3121C304.199 16.3121 307.799 17.1593 310.953 18.8536C314.106 20.5479 316.6 23.2776 318.436 27.0427C320.271 30.7608 321.189 35.7495 321.189 42.009C321.189 48.2686 320.271 53.2809 318.436 57.046C316.6 60.8111 314.106 63.5408 310.953 65.2351C307.799 66.8823 304.199 67.706 300.152 67.706ZM300.152 55.4223C302.693 55.4223 304.599 54.4339 305.87 52.4572C307.188 50.4806 307.846 46.9978 307.846 42.009C307.846 37.0203 307.188 33.5375 305.87 31.5609C304.599 29.5842 302.693 28.5958 300.152 28.5958C297.657 28.5958 295.751 29.6077 294.433 31.6314C293.115 33.6552 292.457 37.1144 292.457 42.009C292.457 46.9037 293.115 50.3629 294.433 52.3866C295.751 54.4104 297.657 55.4223 300.152 55.4223Z" fill="white"/>
<path d="M13.3041 75.7511L67.7198 21.3354L54.6968 8.31248L0.281124 62.7282L13.3041 75.7511Z" fill="#EBEBEB"/>
<path d="M54.2547 75.8954L67.9413 62.2087C67.682 61.9673 67.4227 61.7303 67.1723 61.4754C56.1282 50.4313 56.0254 33.0246 67.0694 21.9805C67.1857 21.8643 67.6015 21.444 67.7223 21.3277L54.6974 8.31177C53.9149 8.9914 53.1458 9.6934 52.4036 10.4356C34.8091 28.0302 34.8091 56.557 52.4036 74.156C53.0072 74.7596 53.6287 75.3364 54.2547 75.8998V75.8954Z" fill="white"/>
<path d="M13.6867 7.8689L3.05176e-05 21.5555C0.259365 21.797 0.5187 22.034 0.769093 22.2888C11.8132 33.3329 12.1932 49.1523 0.769093 62.289C0.661782 62.4142 0.397976 62.6154 0.281722 62.7317L13.2529 75.7029C14.0354 75.0232 14.7911 74.0798 15.5378 73.3331C33.1323 55.7386 33.1323 27.2117 15.5378 9.6127C14.9341 9.00908 14.3126 8.43228 13.6867 7.8689Z" fill="white"/>
<path d="M88.2231 38.3854C86.5195 37.4732 85.1826 36.2034 84.2123 34.5803C83.2421 32.9572 82.7502 31.124 82.7502 29.0806C82.7502 27.0372 83.2376 25.1995 84.2123 23.5764C85.1871 21.9534 86.524 20.6835 88.2231 19.7714C89.9222 18.8548 91.8359 18.3987 93.9597 18.3987C95.7483 18.3987 97.3669 18.7117 98.8111 19.3421C100.255 19.9726 101.472 20.8758 102.455 22.0562L99.3879 24.8865C97.9928 23.2724 96.2625 22.4676 94.1967 22.4676C92.9179 22.4676 91.7778 22.7492 90.7762 23.3082C89.7746 23.8671 88.9921 24.6495 88.4288 25.6556C87.8654 26.6616 87.5881 27.7973 87.5881 29.0761C87.5881 30.3549 87.8698 31.4951 88.4288 32.4967C88.9877 33.4982 89.7701 34.2807 90.7762 34.8441C91.7778 35.403 92.9179 35.6847 94.1967 35.6847C96.2625 35.6847 97.9928 34.8709 99.3879 33.2344L102.455 36.0648C101.472 37.2631 100.251 38.1797 98.7977 38.8101C97.34 39.4406 95.7214 39.7536 93.9284 39.7536C91.8225 39.7536 89.9222 39.2975 88.2186 38.3809L88.2231 38.3854Z" fill="white"/>
<path d="M108.076 37.3078C106.435 35.6758 105.612 33.3463 105.612 30.3147V18.752H110.392V30.1403C110.392 33.8381 111.925 35.6847 114.993 35.6847C116.486 35.6847 117.626 35.2376 118.413 34.3433C119.2 33.4491 119.594 32.0496 119.594 30.1403V18.752H124.315V30.3147C124.315 33.3418 123.493 35.6758 121.852 37.3078C120.211 38.9398 117.912 39.7581 114.961 39.7581C112.01 39.7581 109.717 38.9398 108.071 37.3078H108.076Z" fill="white"/>
<path d="M142.487 39.4049L138.503 33.6503H134.107V39.4049H129.328V18.752H138.266C140.095 18.752 141.682 19.056 143.032 19.6641C144.378 20.2722 145.415 21.1396 146.144 22.2619C146.873 23.3842 147.235 24.7122 147.235 26.2458C147.235 27.7795 146.869 29.103 146.131 30.2119C145.393 31.3252 144.347 32.1748 142.987 32.765L147.62 39.4004H142.487V39.4049ZM141.275 23.5765C140.528 22.9594 139.437 22.6464 138.002 22.6464H134.107V29.8452H138.002C139.437 29.8452 140.528 29.5322 141.275 28.9018C142.022 28.2713 142.397 27.386 142.397 26.2458C142.397 25.1057 142.022 24.1935 141.275 23.5765Z" fill="white"/>
<path d="M151.309 18.752H156.088V39.4004H151.309V18.752Z" fill="white"/>
<path d="M163.327 39.0967C161.803 38.654 160.578 38.0773 159.656 37.3708L161.28 33.7714C162.165 34.4197 163.216 34.9429 164.436 35.3364C165.657 35.7298 166.873 35.9266 168.094 35.9266C169.449 35.9266 170.455 35.7254 171.103 35.3229C171.751 34.9205 172.078 34.384 172.078 33.7133C172.078 33.2214 171.885 32.8145 171.501 32.4881C171.116 32.1617 170.625 31.9024 170.025 31.7057C169.426 31.5089 168.612 31.2943 167.593 31.0573C166.019 30.6862 164.731 30.3106 163.73 29.935C162.728 29.5639 161.865 28.9603 161.15 28.1376C160.43 27.3104 160.072 26.2104 160.072 24.8333C160.072 23.635 160.399 22.5485 161.047 21.5737C161.695 20.599 162.675 19.8299 163.98 19.2576C165.286 18.6853 166.887 18.4036 168.773 18.4036C170.092 18.4036 171.38 18.5601 172.637 18.8775C173.893 19.1905 174.997 19.6466 175.941 20.2368L174.465 23.8675C172.556 22.7854 170.651 22.2444 168.742 22.2444C167.405 22.2444 166.417 22.459 165.778 22.8927C165.138 23.3265 164.821 23.8943 164.821 24.6052C164.821 25.3162 165.187 25.8393 165.925 26.1836C166.663 26.5279 167.79 26.8677 169.301 27.2031C170.875 27.5787 172.163 27.9498 173.164 28.3254C174.166 28.701 175.029 29.2912 175.744 30.096C176.46 30.9008 176.822 31.9963 176.822 33.369C176.822 34.5494 176.491 35.627 175.834 36.5973C175.176 37.572 174.188 38.3411 172.869 38.9134C171.55 39.4857 169.949 39.7674 168.062 39.7674C166.43 39.7674 164.852 39.5438 163.327 39.1057V39.0967Z" fill="white"/>
<path d="M84.0469 46.4741H93.4277C95.6678 46.4741 97.6531 46.9034 99.37 47.7574C101.091 48.6114 102.428 49.8187 103.381 51.3702C104.333 52.9262 104.812 54.7326 104.812 56.7983C104.812 58.8641 104.333 60.6749 103.381 62.2265C102.428 63.778 101.091 64.9853 99.37 65.8393C97.6486 66.6933 95.6678 67.1226 93.4277 67.1226H84.0469V46.4741ZM93.1907 63.2012C95.2564 63.2012 96.9019 62.6244 98.1315 61.4753C99.3611 60.3262 99.9736 58.7657 99.9736 56.7983C99.9736 54.831 99.3566 53.275 98.1315 52.1214C96.9019 50.9722 95.2564 50.3954 93.1907 50.3954H88.8267V63.1968H93.1907V63.2012Z" fill="white"/>
<path d="M108.711 46.4741H113.49V67.1226H108.711V46.4741Z" fill="white"/>
<path d="M132.632 56.4761H136.996V64.8553C135.874 65.7004 134.577 66.3487 133.101 66.8003C131.626 67.2519 130.141 67.48 128.648 67.48C126.506 67.48 124.579 67.0239 122.867 66.1073C121.154 65.1951 119.813 63.9253 118.838 62.3022C117.863 60.6791 117.376 58.8459 117.376 56.8025C117.376 54.7591 117.863 52.9214 118.838 51.2984C119.813 49.6753 121.163 48.4054 122.893 47.4933C124.624 46.5767 126.569 46.1206 128.733 46.1206C130.544 46.1206 132.185 46.4247 133.66 47.0372C135.136 47.6453 136.374 48.5306 137.376 49.6932L134.309 52.5235C132.833 50.972 131.054 50.194 128.97 50.194C127.651 50.194 126.484 50.4712 125.46 51.0211C124.436 51.5711 123.64 52.3491 123.072 53.3507C122.5 54.3523 122.218 55.5058 122.218 56.8025C122.218 58.0992 122.504 59.2215 123.072 60.2231C123.645 61.2246 124.436 62.0071 125.447 62.5705C126.457 63.1294 127.615 63.4111 128.912 63.4111C130.289 63.4111 131.528 63.116 132.627 62.5258V56.4761H132.632Z" fill="white"/>
<path d="M141.722 46.4741H146.502V67.1226H141.722V46.4741Z" fill="white"/>
<path d="M155.968 50.3686H149.359V46.4741H167.356V50.3686H160.747V67.127H155.968V50.3686Z" fill="white"/>
<path d="M182.786 62.7004H173.2L171.371 67.1269H166.475L175.677 46.4785H180.399L189.632 67.1269H184.615L182.786 62.7004ZM181.284 59.0697L178.011 51.1644L174.738 59.0697H181.289H181.284Z" fill="white"/>
<path d="M192.078 46.4741H196.858V63.2325H207.213V67.127H192.078V46.4786V46.4741Z" fill="white"/>
</svg>
